<svg id="레이어_1" data-name="레이어 1" xmlns="http://www.w3.org/2000/svg" xmlns:xlink="http://www.w3.org/1999/xlink" viewBox="0 0 433.24 433.24"><defs><style>.cls-1{fill:none;}.cls-2{clip-path:url(#clip-path);}.cls-3{fill:#fff;}</style><clipPath id="clip-path"><rect class="cls-1" width="433.24" height="433.24"/></clipPath></defs><title>무제-1</title><g class="cls-2"><g class="cls-2"><path class="cls-3" d="M239.4,96.33l.86,1.54,1.38-1.09c5.34-4.22,11-8.22,16.72-11.91l.88-.56-.22-1c-.43-2-.86-3.91-1.32-5.86-.33-1.39-.67-2.78-1-4.17-.59-2.34-1.23-4.7-2-7.24l-.63-2.14c-.27-.91-.54-1.82-.82-2.72-.49-1.62-1-3.32-1.66-5.18-.35-1.06-.71-2.12-1.07-3.18l-.84-2.44-2.06,2.34c-.25.28-.5.56-.77.88l-1,1.2c-.45.51-.9,1-1.35,1.56l-.64.75c-3.91,4.64-7.69,9.46-11.24,14.33-.64.88-1.28,1.76-1.91,2.65l-.2.29c-.67,1-1.34,1.9-2,2.86l-.58.86.59.85c3.88,5.58,7.55,11.43,10.9,17.4m-6.46-20.25.21-.29c.61-.87,1.23-1.73,1.87-2.6,3.51-4.81,7.25-9.58,11.11-14.15l.64-.75,1.33-1.56.44-.5.23.69c.61,1.85,1.14,3.51,1.63,5.11l.81,2.71.63,2.12c.71,2.49,1.34,4.83,1.93,7.14.34,1.37.68,2.76,1,4.13.38,1.59.74,3.18,1.08,4.78-5,3.27-10,6.77-14.7,10.44-3-5.23-6.21-10.36-9.61-15.28.46-.67.93-1.33,1.39-2"/><path class="cls-3" d="M233.19,133.37l-1.83,2.35c-1.66,2.12-3.17,4.13-4.62,6.14l-.42.6.2.7c.62,2.16,1.25,4.51,1.92,7.18l.78,3.09,1.89-2.57c1.41-1.94,2.93-3.91,4.5-5.88l.46-.58-.17-.71c-.62-2.59-1.26-5.1-1.91-7.45Zm-2.62,13.19c-.33-1.24-.65-2.41-1-3.53.74-1,1.49-2,2.28-3.07.31,1.21.63,2.45.93,3.72-.76,1-1.51,1.92-2.24,2.88"/><path class="cls-3" d="M242.25,87.75l1.38-1.09c1.69-1.33,3.46-2.59,5.27-3.75l.88-.56-.22-1c-.14-.63-.28-1.27-.43-1.9l-.33-1.35c-.2-.78-.41-1.56-.64-2.35l-.46-1.57q-.25-.84-.54-1.68c-.11-.34-.23-.68-.35-1L246,69l-3,3.49c-1.27,1.51-2.5,3.07-3.64,4.64l-.63.87-.12.17c-.2.28-.4.56-.59.85l-.58.85.59.85c1.22,1.76,2.38,3.61,3.43,5.49Zm-1.13-8c.19-.27.38-.54.59-.82,1-1.35,2-2.68,3.09-4l0,.1.45,1.53c.22.74.42,1.49.61,2.25.11.43.22.87.32,1.31.07.27.13.55.19.82-1.1.74-2.19,1.5-3.25,2.3-.68-1.14-1.4-2.27-2.14-3.37Z"/><path class="cls-3" d="M283.7,114.21l.21,1.74,1.69-.48c6.54-1.85,13.27-3.39,20-4.6l1-.18.19-1c.36-2,.71-3.94,1-5.92.22-1.41.44-2.83.64-4.25.35-2.33.66-4.76,1-7.43l.24-2.22c.09-.95.19-1.89.28-2.84.16-1.64.31-3.41.45-5.42.08-1.1.16-2.23.23-3.34l.16-2.58L308,77.05l-1,.49-1.48.73-1.74.88-1,.5c-5.4,2.8-10.74,5.8-15.87,8.94-.93.56-1.86,1.13-2.78,1.71l-.4.26-2.84,1.82-.86.56.22,1c1.45,6.64,2.6,13.46,3.41,20.26m1.68-21.12.4-.25c.9-.57,1.81-1.13,2.73-1.69,5.07-3.1,10.35-6.07,15.68-8.83l1-.5,1.72-.87.59-.3c0,.25,0,.49-.05.73-.14,2-.28,3.72-.45,5.35-.09.94-.18,1.87-.28,2.81l-.23,2.2c-.31,2.63-.62,5-1,7.33-.21,1.4-.42,2.81-.65,4.2-.26,1.62-.54,3.23-.83,4.84-5.9,1.08-11.8,2.43-17.58,4-.76-6-1.77-12-3-17.79l1.94-1.24"/><path class="cls-3" d="M254.58,151.43l-.62.38-.08.73c-.25,2.21-.57,4.62-1,7.37l-.46,3.16,2.72-1.66c2.05-1.25,4.21-2.5,6.41-3.71l.64-.36.12-.72c.42-2.63.79-5.2,1.08-7.62l.37-2.95-2.6,1.47c-2.35,1.33-4.51,2.61-6.61,3.91m4.91,4c-1.07.59-2.13,1.2-3.17,1.8.17-1.27.32-2.48.46-3.63,1.06-.66,2.15-1.31,3.27-2-.17,1.24-.36,2.51-.56,3.8"/><path class="cls-3" d="M289.41,105.62l.21,1.75,1.69-.48c2.06-.58,4.19-1.07,6.3-1.45l1-.18.18-1c.12-.63.23-1.27.34-1.92l.21-1.37c.11-.8.22-1.6.31-2.41l.17-1.63c0-.59.1-1.17.14-1.76l.24-3.67-4.16,2.07c-1.74.9-3.47,1.88-5.13,2.89L290,97l-.1.06-.95.61-.87.57.23,1c.45,2.09.82,4.23,1.07,6.38m2.13-6,.1-.06.86-.54c1.42-.86,2.89-1.7,4.37-2.48,0,0,0,.06,0,.1l-.16,1.59q-.13,1.15-.3,2.31l-.21,1.33c0,.28-.09.56-.14.84-1.3.25-2.6.54-3.88.87q-.29-2-.69-3.93l.06,0"/><path class="cls-3" d="M339.29,153l1,.23.56-.88c1.09-1.68,2.17-3.37,3.22-5.07.74-1.22,1.49-2.45,2.22-3.68,1.22-2,2.44-4.17,3.74-6.5l1.06-2c.46-.84.91-1.67,1.35-2.51.79-1.48,1.61-3.06,2.5-4.83l1.48-3,1.14-2.32-3.11.19-1.11.08-1.65.11-2,.16-1,.08c-6.05.51-12.14,1.24-18.08,2.18-1.08.16-2.15.33-3.22.52l-.54.1c-1.08.18-2.17.37-3.25.58l-1,.19-.19,1c-1.19,6.68-2.74,13.42-4.6,20l-.47,1.69,1.74.21c6.76.79,13.57,1.94,20.24,3.4m-14.14-23.76,2.19-.39.55-.09c1.05-.19,2.1-.35,3.16-.52,5.88-.92,11.89-1.65,17.86-2.15l1-.08,2-.16.67,0-.33.65c-.87,1.74-1.67,3.3-2.46,4.76-.44.84-.88,1.66-1.33,2.49l-1.06,1.95c-1.27,2.29-2.48,4.38-3.69,6.41-.72,1.21-1.46,2.43-2.2,3.63q-1.29,2.1-2.61,4.15c-5.87-1.25-11.84-2.27-17.78-3,1.58-5.81,2.93-11.72,4-17.59"/><path class="cls-3" d="M276.64,170.92l-.72.11-.35.64c-1.08,2-2.3,4.06-3.72,6.44l-1.64,2.74,3.16-.49c2.35-.36,4.82-.69,7.34-1l.73-.08.38-.63c1.39-2.26,2.71-4.49,3.92-6.62l1.46-2.59-2.95.36c-2.68.34-5.17.69-7.61,1.09m3,5.57c-1.23.14-2.44.29-3.63.46.65-1.12,1.25-2.17,1.82-3.19,1.23-.19,2.49-.38,3.78-.56-.64,1.08-1.3,2.18-2,3.29"/><path class="cls-3" d="M340.14,136.29l1.61-3.29-4.62.31c-2,.17-3.93.41-5.86.71l-1.13.18-1.14.21-1,.19-.18,1c-.38,2.11-.87,4.23-1.45,6.31l-.48,1.69,1.74.2c2.13.25,4.28.62,6.38,1.08l1,.22.56-.87c.36-.55.7-1.1,1-1.65.25-.39.49-.79.72-1.19.42-.69.82-1.39,1.22-2.11l.77-1.44c.28-.52.55-1,.82-1.57m-3.46.16-.76,1.4c-.38.68-.76,1.36-1.16,2l-.7,1.15-.45.72c-1.3-.26-2.62-.49-3.93-.68.33-1.29.62-2.59.88-3.89l.18,0,1-.17c1.65-.25,3.33-.46,5-.62Z"/><path class="cls-3" d="M335.38,193l1.53.85c5.94,3.32,11.79,7,17.4,10.89l.85.6.86-.59q2.48-1.71,4.91-3.46c1.16-.84,2.32-1.69,3.46-2.55,1.91-1.42,3.85-2.91,5.94-4.57l1.74-1.4,2.2-1.81c1.31-1.07,2.67-2.22,4.16-3.51.84-.72,1.68-1.47,2.52-2.2l1.94-1.71-3-1-1-.36-1.57-.52-1.89-.62-1-.33c-5.79-1.84-11.69-3.49-17.54-4.9-1.06-.26-2.11-.51-3.18-.75l-.55-.13-3.2-.7-1-.21-.56.87c-3.67,5.73-7.68,11.36-11.91,16.74Zm15-15.62,2.16.47.55.13c1,.23,2.08.48,3.12.73,5.78,1.4,11.62,3,17.33,4.85l1,.32,1.88.62.63.21-.55.48c-1.46,1.27-2.8,2.4-4.09,3.46l-2.19,1.78-1.73,1.4c-2.05,1.63-4,3.1-5.85,4.51-1.14.85-2.28,1.69-3.43,2.52-1.32,1-2.66,1.89-4,2.83-4.94-3.41-10.07-6.63-15.27-9.6,3.68-4.76,7.19-9.7,10.44-14.71"/><path class="cls-3" d="M289.56,197.36l-.71-.16-.57.45c-1.73,1.39-3.66,2.87-5.9,4.53l-2.56,1.91,3.1.75c2.33.57,4.73,1.21,7.16,1.91l.7.2.59-.43c2.17-1.56,4.24-3.12,6.16-4.62l2.34-1.83-2.87-.8c-2.6-.71-5-1.34-7.44-1.91m.65,6.3c-1.19-.33-2.36-.66-3.53-1,1-.78,2-1.53,2.9-2.25,1.22.29,2.44.6,3.7.93-1,.75-2,1.52-3.07,2.28"/><path class="cls-3" d="M356.92,193.33c.65-.48,1.29-1,1.94-1.49l.55-.44.71-.58c.46-.38.91-.76,1.35-1.15l2.76-2.42-4.4-1.48c-1.87-.6-3.78-1.13-5.67-1.59l-1-.24-.16,0-1.06-.23-1-.21-.56.87c-1.16,1.81-2.42,3.58-3.75,5.27L345.49,191l1.53.86c1.87,1,3.72,2.2,5.49,3.43l.85.6.86-.59,1.59-1.12,1.11-.83m-2.87-1.6-.69.49c-1.11-.74-2.23-1.46-3.37-2.13.79-1.07,1.56-2.16,2.3-3.26h0l.15,0,1,.23c1.63.39,3.26.84,4.86,1.33l-.08.07-.7.57-.54.43c-.61.49-1.22,1-1.85,1.43l-1.08.8"/><path class="cls-3" d="M335.37,240.26l1.09,1.38c4.22,5.34,8.22,11,11.91,16.72l.56.88,1-.22c2-.43,3.92-.86,5.87-1.32,1.38-.33,2.78-.67,4.17-1,2.3-.58,4.66-1.22,7.24-2l2.14-.63,2.72-.82c1.58-.48,3.27-1,5.19-1.66l3.17-1.07,2.44-.84-2.33-2-.84-.74-1.25-1.08-1.52-1.31-.79-.68c-4.64-3.91-9.47-7.7-14.33-11.24-.88-.64-1.76-1.28-2.65-1.91l-.5-.35L356,228.49l-.86-.58-.85.59c-5.57,3.88-11.43,7.55-17.4,10.9Zm19.8-8.71L357,232.8l.49.35c.88.61,1.74,1.23,2.61,1.87,4.81,3.51,9.58,7.25,14.15,11.11l.8.68q.75.63,1.5,1.29l.51.43-.69.24c-1.89.62-3.56,1.16-5.11,1.63l-2.71.81-2.12.63c-2.53.72-4.87,1.35-7.14,1.93-1.37.35-2.76.68-4.13,1-1.59.38-3.18.74-4.78,1.08-3.26-5-6.77-10-10.44-14.7,5.23-3,10.36-6.21,15.28-9.61"/><path class="cls-3" d="M291.38,226.74l-.6-.42-.7.2c-2.13.61-4.48,1.24-7.18,1.93l-3.09.78,2.57,1.88c1.94,1.42,3.92,2.93,5.88,4.5l.58.46.71-.17c2.6-.62,5.11-1.26,7.45-1.91l2.87-.8-2.35-1.83c-2.13-1.66-4.14-3.17-6.14-4.62m-1.82,6.07c-1-.76-1.92-1.51-2.88-2.24,1.25-.33,2.42-.65,3.53-1,1,.74,2,1.49,3.07,2.28l-3.72.93"/><path class="cls-3" d="M350.89,249.78l1-.22,1.9-.43,1.35-.33c.78-.2,1.56-.41,2.35-.64l1.56-.46c.57-.17,1.13-.35,1.69-.54l3.48-1.19-3.5-3c-1.51-1.27-3.07-2.5-4.64-3.65l-.87-.62-.21-.15-.8-.56-.86-.58-.85.59a64,64,0,0,1-5.49,3.43l-1.53.86,1.09,1.38c1.32,1.68,2.59,3.45,3.75,5.27Zm2.47-8.77.15.11.82.59c1.34,1,2.68,2,4,3.09l-.1,0-1.53.45c-.74.22-1.5.42-2.25.61l-1.31.32-.82.19c-.74-1.11-1.51-2.19-2.3-3.25,1.15-.69,2.27-1.4,3.37-2.14"/><path class="cls-3" d="M432.7,215.12H357.25c2.38-1.54,4.61-3,6.75-4.53A253.37,253.37,0,0,0,391,189c2.51-2.3,5-4.74,7.55-7.24l1.55-1.6-2.07-.86c-3.07-1.27-6.33-2.54-9.7-3.77a252,252,0,0,0-33.21-9.67c-2.65-.58-5.34-1.1-8-1.6l69.77-28.9h0l.51-.21-1.15-2.77L346,161.42c1.61-2.33,3.1-4.57,4.5-6.77a254.9,254.9,0,0,0,16.65-30.3c1.44-3.1,2.85-6.32,4.19-9.58l.83-2.07H369.9c-3.34,0-6.84.07-10.41.22a253.54,253.54,0,0,0-34.38,3.78c-2.67.48-5.36,1-8,1.59l53.4-53.4.38-.38-2.12-2.12L315,116.12c.59-2.76,1.11-5.4,1.57-8a255,255,0,0,0,3.78-34.36c.14-3.4.22-6.92.21-10.46l0-2.23-2.07.86c-3.09,1.28-6.29,2.69-9.53,4.19a252.63,252.63,0,0,0-30.32,16.65c-2.28,1.46-4.55,3-6.82,4.55L300.7,17.56h0l.21-.5-2.77-1.14-29.08,70.2c-.51-2.78-1-5.41-1.6-8A253.93,253.93,0,0,0,257.79,45c-1.17-3.22-2.46-6.5-3.81-9.75l-.88-2.05-1.58,1.59c-2.36,2.35-4.78,4.88-7.2,7.51a253.72,253.72,0,0,0-21.64,27c-1.55,2.23-3.07,4.51-4.56,6.82V0h-3V76c-1.54-2.38-3-4.61-4.53-6.75a254.38,254.38,0,0,0-21.63-27c-2.31-2.52-4.75-5.06-7.24-7.55l-1.6-1.55-.86,2.07c-1.27,3.07-2.54,6.33-3.78,9.7a253,253,0,0,0-9.66,33.21c-.58,2.65-1.1,5.34-1.6,8l-28.9-69.77h0l-.21-.5-2.77,1.14,29.08,70.21c-2.33-1.61-4.57-3.09-6.77-4.5a256.47,256.47,0,0,0-30.3-16.65c-3.1-1.43-6.32-2.85-9.58-4.19l-2.07-.83v2.24c0,3.32.07,6.82.21,10.41a255.15,255.15,0,0,0,3.79,34.38c.48,2.67,1,5.36,1.59,8l-53.4-53.4h0l-.38-.38-2.12,2.12,53.73,53.73c-2.77-.59-5.41-1.11-8-1.57a254.82,254.82,0,0,0-34.36-3.78c-3.42-.14-6.93-.2-10.46-.21l-2.23,0,.86,2.07c1.27,3.08,2.68,6.28,4.18,9.53a254.24,254.24,0,0,0,16.66,30.32c1.46,2.28,3,4.55,4.55,6.82L17.56,132.54h0l-.5-.21-1.15,2.77,70.21,29.08c-2.78.51-5.42,1-8,1.61A253.83,253.83,0,0,0,45,175.45c-3.2,1.17-6.48,2.45-9.74,3.81l-2.05.88,1.59,1.58c2.36,2.36,4.89,4.78,7.51,7.2a251.73,251.73,0,0,0,27,21.64c2.23,1.55,4.51,3.07,6.81,4.56H0v3H76c-2.37,1.53-4.6,3-6.75,4.53a254.38,254.38,0,0,0-27,21.63c-2.51,2.3-5.05,4.73-7.55,7.24l-1.56,1.6,2.08.86c3.09,1.28,6.36,2.55,9.7,3.78a253.48,253.48,0,0,0,33.21,9.66c2.66.58,5.35,1.1,8,1.6L15.91,298.13l1.15,2.77.5-.2,69.71-28.88c-1.61,2.33-3.1,4.58-4.5,6.77a255.68,255.68,0,0,0-16.65,30.3c-1.43,3.1-2.85,6.32-4.2,9.58l-.82,2.08h2.24c3.33,0,6.83-.08,10.41-.23a253.54,253.54,0,0,0,34.38-3.78c2.67-.48,5.36-1,8-1.59l-53.4,53.4h0l-.38.38,2.12,2.12,53.73-53.73c-.59,2.77-1.11,5.41-1.57,8a253.39,253.39,0,0,0-3.78,34.36c-.15,3.42-.22,6.94-.21,10.46V372l2-.71.1,0c3.09-1.28,6.3-2.69,9.53-4.19a252.63,252.63,0,0,0,30.32-16.65c2.28-1.46,4.56-3,6.82-4.55l-28.91,69.78h0l-.2.5,2.77,1.15,29.08-70.21c.51,2.79,1,5.42,1.6,8a254.83,254.83,0,0,0,9.66,33.19c1.17,3.22,2.45,6.5,3.8,9.75l.89,2.05,1.58-1.59c2.35-2.35,4.78-4.88,7.2-7.51a251.73,251.73,0,0,0,21.64-27c1.55-2.23,3.07-4.51,4.56-6.81V432.7h0v.54h3v-76c1.53,2.37,3,4.61,4.53,6.75a253.12,253.12,0,0,0,21.63,27c2.31,2.52,4.75,5.06,7.24,7.55l1.6,1.55L254,398c1.27-3.07,2.54-6.33,3.77-9.7a252,252,0,0,0,9.67-33.21c.57-2.64,1.1-5.34,1.6-8l28.9,69.77h0l.21.51,2.77-1.15L271.82,346c2.33,1.61,4.57,3.1,6.77,4.5a254.9,254.9,0,0,0,30.3,16.65c3.1,1.44,6.32,2.85,9.58,4.19l2.07.83V369.9c0-3.35-.07-6.85-.22-10.41a252.3,252.3,0,0,0-3.78-34.38c-.48-2.67-1-5.36-1.59-8l53.4,53.4.38.38,2.12-2.12L317.12,315c2.76.59,5.4,1.11,8,1.57a254.64,254.64,0,0,0,34.36,3.78c3.42.15,6.93.21,10.46.21l2.23,0-.86-2.07c-1.28-3.08-2.69-6.29-4.18-9.53a254.24,254.24,0,0,0-16.66-30.32c-1.46-2.28-3-4.55-4.55-6.82l69.78,28.91h0l.5.2,1.15-2.77-70.21-29.08c2.78-.51,5.41-1,8-1.6a254.83,254.83,0,0,0,33.19-9.66c3.21-1.17,6.49-2.45,9.75-3.81l2.05-.88-1.59-1.58c-2.36-2.37-4.89-4.79-7.51-7.2h0a253.72,253.72,0,0,0-27-21.64c-2.22-1.55-4.51-3.06-6.82-4.56h76.07v-3ZM317.15,240.28l1.37,1.48c.34.37.69.74,1,1.12l1.52,1.69.81.91c.77.87,1.53,1.74,2.27,2.61,3.6,4.17,7.09,8.51,10.36,12.89.73,1,1.44,1.93,2.14,2.89l.45.63.41.57-44.94-18.62c2.31-.74,4.63-1.5,6.92-2.31s4.6-1.65,6.9-2.54c3.07-1.18,5.91-2.34,8.66-3.53.33.35.67.7,1,1.06l1.1,1.15m-16,38.56.52,1.42c.25.69.49,1.38.73,2.07.15.41.29.83.44,1.24.31.93.62,1.85.92,2.77.06.17.12.34.17.51.26.75.49,1.52.74,2.28q.88,2.78,1.7,5.56c.79,2.67,1.52,5.36,2.2,8,.4,1.55.77,3.08,1.13,4.6,0,.11.05.22.08.33l-34.4-34.4c2.42.2,4.85.38,7.28.51s4.89.24,7.35.29c3.28.08,6.34.1,9.35.06.17.43.34.87.5,1.31s.4,1,.59,1.53.47,1.26.7,1.89m-30.4,4c.15,2.48.24,4.92.29,7.25s.09,4.52.08,6.69l0,0v1.43c-2.4-1-4.85-2-7.42-3.15-2.23-1-4.45-2-6.59-3-3.25-1.55-6.49-3.19-9.62-4.87l-1.66-4a90,90,0,0,0-1.61-24,89.71,89.71,0,0,0,24.59,11.81l1.16,1.16c.34,3.4.61,6.93.82,10.8m.09,25.23,0,.5c-.11,2.14-.23,4.26-.39,6.34-.41,5.51-1,11-1.8,16.44-.16,1.18-.34,2.34-.52,3.49l-.15.91c0,.21-.06.41-.1.61l-18.61-44.94c2.15,1.11,4.33,2.21,6.53,3.26s4.41,2.08,6.67,3.08c3,1.33,5.83,2.52,8.62,3.63,0,.18,0,.35,0,.53q-.07,3.09-.21,6.15m-37.58,10.44c-.31.69-.63,1.38-.95,2.07-.18.38-.36.77-.53,1.15-.36.76-.72,1.51-1.09,2.26l-.43.91c-.52,1.05-1,2.09-1.55,3.11-2.49,4.94-5.16,9.82-7.95,14.5-.61,1-1.22,2.05-1.83,3.05l-.45.72c-.11.2-.23.38-.35.57V298.2c1.57,1.85,3.16,3.7,4.79,5.52s3.29,3.62,5,5.39c2.26,2.38,4.42,4.56,6.58,6.66-.22.48-.43,1-.64,1.44l-.58,1.3M193,317.12l-1.64,1.52-1,.89-1.8,1.61c-.27.25-.54.5-.82.74-.87.77-1.74,1.53-2.61,2.27-4.18,3.61-8.52,7.09-12.89,10.36-.95.72-1.91,1.42-2.85,2.11l-.71.51-.53.38,18.62-44.94c.74,2.31,1.5,4.63,2.31,6.92s1.64,4.59,2.54,6.9c1.16,3,2.34,5.91,3.53,8.66L194,316.12l-1,1m-36.68-16.69c-.67.26-1.35.5-2,.75l-1.29.47-2.3.82-1,.35-3.3,1.11c-5.23,1.72-10.56,3.28-15.87,4.63-1.53.4-3.05.77-4.55,1.12l-.38.09,34.4-34.4c-.2,2.42-.38,4.85-.51,7.28s-.24,4.88-.29,7.35c-.08,3.3-.1,6.37-.06,9.35l-1.37.53-1.45.55m-31.12-29.6-.52,0c-2.14-.1-4.26-.23-6.34-.39-5.51-.41-11-1-16.44-1.8-1.18-.16-2.35-.34-3.51-.52l-.85-.14-.65-.11,44.94-18.61c-1.11,2.16-2.21,4.34-3.26,6.53s-2.09,4.42-3.08,6.67c-1.34,3-2.53,5.85-3.63,8.62h-.52c-2.05-.05-4.11-.11-6.14-.21m-10.47-37.58-2-.92-1.24-.57-2.16-1-1-.49c-1-.51-2.09-1-3.11-1.54-4.93-2.48-9.8-5.15-14.5-7.95-1-.6-2-1.21-3-1.82l-.76-.46-.55-.35H135c-1.85,1.57-3.7,3.16-5.51,4.79s-3.62,3.28-5.41,5c-2.38,2.27-4.57,4.43-6.65,6.58l-1.45-.65-1.3-.57m1.36-40.3-1.31-1.42-1.09-1.18c-.45-.49-.88-1-1.32-1.47l-1-1.15-1.44-1.65-.8-.93c-.82-.94-1.63-1.9-2.43-2.86l-.25-.3-.17-.21c-2.6-3.12-5.11-6.31-7.51-9.52-.72-1-1.43-1.91-2.12-2.87l-.49-.67-.39-.55,44.94,18.62c-2.31.74-4.63,1.5-6.92,2.31s-4.6,1.65-6.9,2.54c-3.07,1.18-5.92,2.34-8.66,3.53l-1-1-1.14-1.2m14.76-42c-.14-.42-.29-.83-.43-1.24-.38-1.09-.74-2.18-1.1-3.27-1.73-5.24-3.29-10.58-4.63-15.87-.4-1.53-.77-3.05-1.12-4.55l-.09-.38,34.4,34.4c-2.42-.2-4.85-.38-7.28-.51s-4.88-.24-7.35-.29c-3.28-.08-6.35-.1-9.35-.06-.18-.46-.36-.92-.53-1.39s-.38-1-.56-1.45l-.71-1.91-.52-1.42c-.25-.69-.49-1.38-.73-2.06m31.66-.5c-.15-2.45-.24-4.89-.29-7.25s-.09-4.49-.08-6.63l0,0v-1.49c2.4,1,4.85,2,7.42,3.15,2.22,1,4.43,2,6.59,3.05,3.25,1.55,6.48,3.19,9.62,4.87l1.66,4a90,90,0,0,0,1.61,24,89.71,89.71,0,0,0-24.59-11.81l-1.16-1.16c-.34-3.39-.61-6.92-.82-10.8m-.09-25.22,0-.51c.1-2.14.23-4.26.39-6.34.41-5.5,1-11,1.8-16.44.16-1.19.34-2.36.53-3.53l.12-.8.12-.68L184,141.82c-2.16-1.11-4.34-2.21-6.53-3.26s-4.43-2.09-6.67-3.08c-3-1.33-5.83-2.52-8.62-3.63,0-.17,0-.35,0-.53.05-2.06.11-4.11.21-6.14M200,114.74c.31-.7.63-1.38.95-2.07l.54-1.16c.35-.75.7-1.49,1.06-2.22.15-.32.3-.64.46-1,.51-1,1-2.09,1.54-3.11.85-1.69,1.74-3.37,2.63-5,1.71-3.2,3.49-6.37,5.32-9.45l.09-.16c.58-1,1.17-1.95,1.75-2.9.14-.24.29-.47.43-.7l.36-.58V135c-1.57-1.86-3.16-3.7-4.79-5.51s-3.29-3.63-5-5.4c-2.26-2.39-4.42-4.57-6.57-6.65l.66-1.5c.19-.41.37-.83.56-1.24m40.28,1.36,1.49-1.38,1.12-1,1.63-1.47,1-.86c.87-.77,1.74-1.53,2.61-2.27,4.19-3.62,8.53-7.1,12.89-10.36,1-.73,1.92-1.43,2.88-2.13l.65-.47.56-.4-18.62,44.94c-.74-2.3-1.5-4.62-2.31-6.92s-1.65-4.6-2.54-6.9c-1.18-3.07-2.34-5.92-3.53-8.66l1.08-1,1.12-1.07m36.67,16.71,2-.75,1.29-.47c.76-.28,1.51-.54,2.26-.8l1.06-.37,2.84-1,.45-.15,2.63-.84c4.39-1.39,8.83-2.67,13.24-3.79,1.54-.4,3.06-.77,4.57-1.12l.36-.09-34.4,34.4c.2-2.42.38-4.86.51-7.28s.23-4.89.29-7.35c.08-3.28.1-6.35.06-9.35l1.36-.52,1.47-.56m31.1,29.6.57,0c2.12.11,4.23.24,6.3.39,5.5.41,11,1,16.44,1.8,1.19.16,2.36.34,3.52.53l.83.13.66.11L291.42,184q1.66-3.24,3.26-6.54c1-2.16,2.08-4.4,3.08-6.67,1.34-3,2.53-5.84,3.63-8.62h.54q3.07.08,6.11.21M311.52,197h0l1.31.56c-1.82,1.85-3.72,3.72-5.77,5.66-1.77,1.69-3.56,3.35-5.33,4.92-2.67,2.41-5.43,4.77-8.18,7h-4.34a89.88,89.88,0,0,0-22.81-7.71,89.58,89.58,0,0,0,20.33-18.2l1.51-.62c3.26,1,6.63,2.08,10.29,3.37,2.33.81,4.62,1.65,6.81,2.51s4.21,1.65,6.2,2.48m-69,78.26-11-26.63a91.48,91.48,0,0,0,9,7.83A87.24,87.24,0,0,1,243,276.35Zm-50.87-19.52a91.63,91.63,0,0,0,9.25-7.94c.71-.7,1.41-1.41,2.09-2.13l-2.79,6.73-11.14,26.92a86.41,86.41,0,0,1,2.59-23.58m6.57-79.6,3.55,8.57a91.48,91.48,0,0,0-9-7.83,87.24,87.24,0,0,1-2.49-19.94Zm41.87-20-11.37,27.44a88.92,88.92,0,0,0-.85-11.91,87.25,87.25,0,0,1,12.35-15.86Zm4.11-2.1a86.48,86.48,0,0,1-2.59,23.59,90.26,90.26,0,0,0-9.25,7.93c-.71.7-1.41,1.41-2.09,2.13l2.22-5.37Zm-2.46,71.43-17.57-7.28h14.89A88.35,88.35,0,0,1,250.22,222c2.39,1,4.72,2.14,7,3.35a88,88,0,0,1-15.49.05M198.9,236.46l2.64-2.64L212.35,223l-5.7,13.75a86.88,86.88,0,0,1-7.86,8.85c-1.84,1.81-3.78,3.53-5.76,5.17.78-2.53,1.68-5,2.69-7.49s2-4.6,3.18-6.83m-6.24-8.29,4.87-2,12.7-5.26L199.7,231.42a89.31,89.31,0,0,1-10.65,5.16c-2.39,1-4.84,1.82-7.3,2.57,1.7-2,3.48-4,5.36-5.88s3.63-3.48,5.55-5.1m-2.59-10h19l-13.75,5.7a88,88,0,0,1-11.81.69c-2.59,0-5.18-.17-7.74-.42,2.35-1.23,4.75-2.37,7.2-3.39s4.69-1.82,7.09-2.58m1.44-10.28,17.57,7.28H194.19A88.35,88.35,0,0,1,183,211.24c-2.39-1-4.72-2.14-7-3.35a88,88,0,0,1,15.49,0m46-17.89c-1,2.3-2,4.6-3.18,6.83l-2.64,2.64h0l-10.8,10.81,5.7-13.75a88,88,0,0,1,7.86-8.85c1.84-1.81,3.78-3.53,5.76-5.17-.79,2.53-1.68,5-2.69,7.49Zm3.06,15.12L223,212.35l10.52-10.53a89.31,89.31,0,0,1,10.65-5.16c2.39-1,4.84-1.82,7.3-2.57-1.69,2-3.48,4-5.36,5.89s-3.62,3.47-5.55,5.09M210,216.51a6.3,6.3,0,1,1,6.3,6.29,6.31,6.31,0,0,1-6.3-6.29m33.13-1.39h-19l13.75-5.69a86.56,86.56,0,0,1,11.81-.7c2.59,0,5.17.17,7.74.42-2.35,1.23-4.75,2.37-7.2,3.39s-4.69,1.82-7.09,2.58m-30.82-4.89L201.82,199.7a87.81,87.81,0,0,1-5.16-10.65c-1-2.39-1.82-4.84-2.57-7.3,2,1.7,4,3.48,5.88,5.36s3.48,3.63,5.1,5.55Zm-12.93-8.69h0l10.81,10.8-13.75-5.7a86.88,86.88,0,0,1-8.85-7.86c-1.81-1.84-3.53-3.78-5.17-5.76q3.79,1.17,7.49,2.69c2.3,1,4.6,2,6.83,3.18ZM220.89,223l.77.77,9.75,9.76a86.46,86.46,0,0,1,5.17,10.65c1,2.39,1.82,4.84,2.57,7.3-2-1.69-4-3.48-5.89-5.36s-3.47-3.63-5.09-5.55Zm2.12-2.12,13.75,5.7a88,88,0,0,1,8.85,7.86c1.81,1.84,3.53,3.78,5.17,5.76-2.53-.78-5-1.68-7.49-2.69-2.3-1-4.6-2-6.83-3.18Zm28.83-5.77a90.93,90.93,0,0,0,10.68-5.34,86.92,86.92,0,0,1,19.37,5.34Zm10.06-8.46a90.87,90.87,0,0,0-12.15-.93c-1,0-2,0-3,0l12.33-5.11,21.32-8.83a86.46,86.46,0,0,1-18.52,14.84m-13.32-4.9a90.07,90.07,0,0,0,7.82-9,86.83,86.83,0,0,1,20-2.48Zm6.06-11.67a90,90,0,0,0-11.58,3.79c-.92.37-1.83.76-2.74,1.17l25.75-25.76a86.59,86.59,0,0,1-11.43,20.8m-14.18.57a90.69,90.69,0,0,0,3.78-11.33,87,87,0,0,1,17.48-9.93ZM225.72,184c0,2.49-.11,5-.32,7.53l-7.28,17.57V194.19A88.35,88.35,0,0,1,222,183c1-2.38,2.14-4.71,3.35-7,.24,2.64.37,5.3.37,7.95m-6.48-2.14c-.39.92-.76,1.84-1.12,2.77V148.19A86.35,86.35,0,0,1,224.74,171a92.24,92.24,0,0,0-5.5,10.87m-4.12-.44a90.93,90.93,0,0,0-5.34-10.68,86.92,86.92,0,0,1,5.34-19.37V181.4ZM212.54,183c1,2.31,1.82,4.69,2.58,7.09v19l-5.7-13.75a88.08,88.08,0,0,1-.69-11.81c0-2.59.17-5.17.42-7.74,1.23,2.35,2.37,4.75,3.39,7.2m-6.78,3.49-1.2-2.89-12.74-30.76a86.46,86.46,0,0,1,14.84,18.52,90.87,90.87,0,0,0-.93,12.15c0,1,0,2,0,3m-15.67-7.87a90,90,0,0,0,3.79,11.58c.37.92.76,1.83,1.16,2.74l-15.11-15.11-10.64-10.64a86.59,86.59,0,0,1,20.8,11.43m.57,14.18A91.23,91.23,0,0,0,179.33,189a87.32,87.32,0,0,1-9.93-17.48Zm-13.11-1.14a91.44,91.44,0,0,0,7.94,9.25c.7.71,1.41,1.41,2.13,2.09L154,189.05a86.85,86.85,0,0,1,23.58,2.59m6,12.89a90.48,90.48,0,0,0-11.91.84A86.42,86.42,0,0,1,155.74,193Zm-12.54,4a92.24,92.24,0,0,0,10.87,5.5c.91.39,1.84.76,2.76,1.12H148.19A86.35,86.35,0,0,1,171,208.5m10.43,9.62a90.93,90.93,0,0,0-10.68,5.34,87,87,0,0,1-19.38-5.34Zm-10.07,8.46a91,91,0,0,0,12.16.93h.82l2.18,0L163,237.22l-10.14,4.2a87,87,0,0,1,18.51-14.84m13.33,4.9a91.48,91.48,0,0,0-7.83,9A87.24,87.24,0,0,1,156.89,243Zm-6.07,11.67a90.13,90.13,0,0,0,11.59-3.79c.92-.37,1.83-.76,2.74-1.17L167.17,264a86.9,86.9,0,0,1,11.42-20.8m14.19-.57A91.23,91.23,0,0,0,189,253.91a87.32,87.32,0,0,1-17.48,9.93Zm11.75,7.15a90.84,90.84,0,0,0,.84,11.91A86.76,86.76,0,0,1,193,277.5Zm3-.47c0-2.5.11-5,.32-7.53l7.28-17.57v14.89a88.35,88.35,0,0,1-3.88,11.17c-1,2.38-2.14,4.71-3.35,7-.24-2.64-.37-5.3-.37-7.95M214,251.4c.39-.92.76-1.84,1.12-2.77v36.42a86.63,86.63,0,0,1-6.63-22.78A90.8,90.8,0,0,0,214,251.4m4.12.44a91.71,91.71,0,0,0,5.34,10.68,87,87,0,0,1-5.34,19.38Zm2.58-1.58c-.95-2.31-1.82-4.69-2.58-7.08v-19l5.69,13.75a88.14,88.14,0,0,1,.7,11.82q0,3.87-.42,7.73c-1.23-2.35-2.37-4.75-3.39-7.2m6.78-3.49,13.94,33.65a86.46,86.46,0,0,1-14.84-18.52,90.87,90.87,0,0,0,.93-12.15c0-1,0-2,0-3m15.67,7.88a90.13,90.13,0,0,0-3.79-11.59c-.37-.92-.76-1.83-1.17-2.74L264,266.07a86.9,86.9,0,0,1-20.8-11.42m-.57-14.19a91.23,91.23,0,0,0,11.33,3.78,87.32,87.32,0,0,1,9.93,17.48Zm13.1,1.14a90.08,90.08,0,0,0-7.93-9.25c-.7-.71-1.41-1.41-2.13-2.09l33.65,13.93a86.48,86.48,0,0,1-23.59-2.59m7.88-7.16-13.83-5.73a90.6,90.6,0,0,0,11.91-.84,86.76,86.76,0,0,1,15.86,12.34Zm-1.29-9.69a90.8,90.8,0,0,0-10.87-5.51c-.92-.39-1.84-.76-2.77-1.12h36.42a86.75,86.75,0,0,1-22.78,6.63m35.9-62.58c-1,2.39-2,4.84-3.15,7.42-1,2.25-2,4.46-3,6.59-1.56,3.26-3.2,6.49-4.87,9.62l-4,1.66a90,90,0,0,0-24,1.61,89.71,89.71,0,0,0,11.81-24.59l1.16-1.16c3.39-.34,6.93-.61,10.79-.82,2.46-.15,4.9-.24,7.26-.29s4.49-.09,6.63-.08l0,0Zm-27.05-27.1c0,2.6,0,5.27-.07,8.1-.05,2.43-.15,4.87-.29,7.25-.19,3.59-.47,7.2-.82,10.76l-3.07,3.07a90,90,0,0,0-21.58,10.67,89.83,89.83,0,0,0,1.51-27.24l.62-1.51c3-1.62,6.17-3.22,9.66-4.89,2.23-1.08,4.45-2.1,6.6-3.05,2.57-1.14,5-2.18,7.44-3.16m-35.34-14.62c1,2.38,2,4.84,3,7.48.88,2.28,1.72,4.56,2.51,6.81,1.2,3.41,2.33,6.86,3.36,10.25L243,149a89.83,89.83,0,0,0-15.85,18.13,89.53,89.53,0,0,0-9-25.75v-1.63c2.16-2.65,4.46-5.34,7-8.22,1.65-1.85,3.3-3.65,4.93-5.34s3.14-3.26,4.67-4.78v0Zm-38.8,1.2.07.17.51-1.33c1.83,1.79,3.68,3.68,5.61,5.71,1.68,1.75,3.33,3.54,4.92,5.33,2.41,2.68,4.77,5.43,7,8.18v4.34a89.88,89.88,0,0,0-7.71,22.81,89.82,89.82,0,0,0-18.2-20.33l-.62-1.51c1-3.27,2.08-6.64,3.37-10.29.8-2.32,1.65-4.61,2.51-6.81s1.66-4.25,2.51-6.27M135.6,163.41l.17.08-.6-1.37c2.56,0,5.2,0,8,.07,2.43.05,4.87.15,7.25.29,3.61.19,7.22.47,10.76.82l3.07,3.07A90,90,0,0,0,174.92,188a89.83,89.83,0,0,0-27.24-1.51l-1.51-.62c-1.62-3-3.22-6.17-4.89-9.66-1.08-2.23-2.1-4.44-3.05-6.6s-1.81-4.14-2.63-6.15m-15.18,34.07c2.39-1,4.86-2,7.51-3,2.27-.88,4.56-1.72,6.81-2.51,3.4-1.2,6.85-2.32,10.25-3.36l4,1.67a90,90,0,0,0,18.12,15.85,89.57,89.57,0,0,0-25.74,9h-1.63c-2.65-2.16-5.34-4.47-8.22-7.05-1.85-1.64-3.64-3.3-5.34-4.93-2-1.94-4-3.81-5.77-5.66m0,38.27c1.81-1.85,3.72-3.73,5.77-5.68,1.76-1.69,3.56-3.34,5.34-4.92,2.68-2.42,5.43-4.77,8.18-7h4.34a89.88,89.88,0,0,0,22.81,7.71A89.82,89.82,0,0,0,146.53,244l-1.5.62c-3.28-1-6.64-2.08-10.3-3.37-2.34-.81-4.63-1.65-6.81-2.51-2.64-1-5.11-2-7.5-3m16,35.36,0,0h-1.43c1-2.39,2-4.83,3.15-7.42,1-2.23,2-4.44,3.05-6.59,1.55-3.24,3.19-6.47,4.87-9.62l4-1.66c2,.13,4.06.21,6.08.21a90.27,90.27,0,0,0,18-1.82,89.46,89.46,0,0,0-11.82,24.59l-1.16,1.16c-3.4.34-6.94.62-10.8.82-2.45.15-4.89.24-7.25.29s-4.53.09-6.69.08m25.66,27.06c0-2.59,0-5.25.07-8.1.05-2.44.15-4.87.29-7.25.19-3.61.47-7.22.82-10.76l3.07-3.07A90,90,0,0,0,188,258.32a89.83,89.83,0,0,0-1.51,27.24l-.62,1.51c-3,1.61-6.16,3.22-9.66,4.89-2.22,1.08-4.44,2.1-6.6,3.05-2.58,1.15-5,2.19-7.44,3.16m35.34,14.62c-1-2.4-2-4.9-3-7.48-.89-2.29-1.73-4.57-2.51-6.81-1.2-3.4-2.32-6.84-3.36-10.25l1.67-4a90,90,0,0,0,15.85-18.12,89.57,89.57,0,0,0,9,25.74v1.63c-2.16,2.65-4.46,5.34-7.05,8.22-1.65,1.86-3.31,3.65-4.93,5.34s-3.14,3.26-4.67,4.78v-.05Zm38.83-1.26-.13-.3-.53,1.48c-1.82-1.79-3.65-3.66-5.56-5.66-1.68-1.76-3.33-3.55-4.92-5.33-2.42-2.7-4.78-5.45-7-8.19v-4.34a89.88,89.88,0,0,0,7.71-22.81A89.82,89.82,0,0,0,244,286.71l.62,1.5c-1,3.27-2.08,6.64-3.37,10.3-.8,2.32-1.65,4.61-2.51,6.81s-1.65,4.22-2.48,6.21m61.88-40.41c-2.6,0-5.27,0-8.1-.07-2.43-.05-4.87-.15-7.25-.29-3.61-.19-7.22-.47-10.76-.82L269,266.87a89.75,89.75,0,0,0-10.68-21.59,89.5,89.5,0,0,0,18.53,1.95c2.9,0,5.81-.15,8.72-.43l1.51.62c1.62,3,3.23,6.18,4.89,9.66,1.08,2.24,2.11,4.45,3.05,6.6,1.14,2.57,2.18,5,3.16,7.44m14.51-35.3c-2.35,1-4.78,2-7.37,3-2.27.88-4.56,1.72-6.81,2.51-3.4,1.2-6.85,2.32-10.25,3.36l-4-1.67a90.1,90.1,0,0,0-18.13-15.85,89.53,89.53,0,0,0,25.75-9h1.63c2.65,2.16,5.34,4.47,8.22,7,1.84,1.64,3.63,3.29,5.34,4.93s3.26,3.14,4.78,4.67h-.31Zm-9-25.49c1.79-1.59,3.61-3.27,5.4-5,2.38-2.26,4.57-4.42,6.66-6.58l1.39.62,1.37.61,1.94.89,1.27.59,2.1,1,1.07.52c1,.51,2.08,1,3.1,1.54q3.69,1.86,7.34,3.86t7.16,4.09c1.05.62,2.07,1.23,3.08,1.85l.67.41.59.37H298.2c1.86-1.57,3.71-3.17,5.51-4.79m83.56-32q3.86,1.42,7.52,2.89c-2,1.92-3.91,3.78-5.85,5.56a249.8,249.8,0,0,1-26.66,21.38c-3.15,2.2-6.5,4.41-10.22,6.74l-.34-.22c-1.13-.73-2.28-1.46-3.47-2.19l-.36-.23q-1.89-1.17-3.85-2.32c-2.37-1.41-4.8-2.8-7.25-4.14s-4.94-2.65-7.43-3.9c-1-.51-2-1-3-1.51l-1-.5-2.09-1-1.19-.56-2-.91-1.23-.56-.84-.37c2.91-3.05,5.75-6.19,8.45-9.34,3.6-4.17,7.13-8.56,10.49-13,1.95-2.6,3.8-5.17,5.52-7.64,4,.67,8.07,1.45,12,2.31a252.18,252.18,0,0,1,32.82,9.55m-52.75-6c-3.32,4.44-6.81,8.77-10.37,12.9-2.9,3.39-6,6.75-9.1,10-2.76-1.2-5.6-2.35-8.64-3.52-2.22-.87-4.54-1.72-6.91-2.55s-4.72-1.62-6.95-2.33l45-18.63c-1,1.36-2,2.73-3,4.12m-8.88-52.63a252.45,252.45,0,0,1,34-3.74c2.73-.11,5.42-.18,8.05-.2-1.06,2.5-2.16,5-3.28,7.37a249,249,0,0,1-16.45,30c-2.06,3.24-4.31,6.56-6.86,10.14l-.38-.07c-1.32-.24-2.66-.47-4-.7l-.52-.08q-2.16-.34-4.38-.66c-5.47-.79-11.07-1.4-16.63-1.82q-2.81-.21-5.67-.36l-.91,0c-1.83-.09-3.68-.15-5.54-.2l-.46,0c1.52-3.94,2.94-7.92,4.23-11.85,1.73-5.24,3.31-10.65,4.7-16.08.82-3.21,1.53-6.22,2.17-9.17,4-.92,8-1.75,12-2.46m-17.06,10.89c-1.37,5.36-2.93,10.7-4.64,15.88-1.39,4.23-2.93,8.51-4.58,12.73-3,0-6.08,0-9.34.06-2.39,0-4.87.15-7.35.29s-5,.31-7.31.51l34.43-34.44c-.38,1.62-.77,3.26-1.21,5M280.23,85.31a251,251,0,0,1,30-16.45c2.48-1.15,4.94-2.25,7.36-3.28,0,2.73-.09,5.44-.2,8.07a250.52,250.52,0,0,1-3.74,34c-.67,3.8-1.48,7.73-2.46,12l-2.7.61-1.59.35c-1.62.38-3.24.78-4.88,1.2-5.37,1.37-10.77,3-16.07,4.69-1.78.58-3.57,1.2-5.37,1.84l-.86.3q-2.58.93-5.16,1.92l-.48.17c-.1-4.22-.31-8.44-.62-12.57-.41-5.49-1-11.09-1.81-16.65-.48-3.28-1-6.34-1.51-9.3,3.33-2.37,6.73-4.68,10.13-6.86M268.64,101.9c.79,5.49,1.39,11,1.78,16.45.34,4.44.55,9,.64,13.52-2.79,1.1-5.62,2.29-8.59,3.62-2.18.95-4.43,2-6.69,3.08s-4.48,2.19-6.56,3.27l18.64-45c.27,1.63.53,3.31.78,5.06M225.14,71A250.44,250.44,0,0,1,246.52,44.3c1.86-2,3.72-4,5.55-5.84,1,2.51,2,5,2.9,7.53a248.86,248.86,0,0,1,9.54,32.8c.84,3.77,1.6,7.71,2.32,12l-.32.22c-1.11.77-2.23,1.55-3.35,2.37l-.38.27q-1.8,1.29-3.6,2.65c-4.42,3.3-8.81,6.83-13.05,10.48l-2.57,2.24-.76.68L241,111.36l-.92.84-1.64,1.52-1,.92-.66.62c-1.71-3.86-3.51-7.67-5.39-11.37-2.48-4.92-5.18-9.87-8-14.7-1.66-2.79-3.33-5.49-5-8,2.16-3.47,4.43-6.9,6.73-10.21m-4.36,19.75c2.82,4.77,5.5,9.65,7.94,14.52,2,4,3.95,8.1,5.76,12.24-2.16,2.1-4.31,4.28-6.55,6.64-1.64,1.71-3.33,3.53-5,5.41s-3.3,3.73-4.81,5.52V86.35c.88,1.43,1.77,2.88,2.66,4.37m-52-11.93A252.18,252.18,0,0,1,178.3,46c.95-2.59,1.92-5.11,2.89-7.52,1.91,1.94,3.77,3.9,5.56,5.85A248.47,248.47,0,0,1,208.12,71c2.21,3.15,4.42,6.5,6.75,10.22l-.24.38c-.72,1.1-1.43,2.23-2.15,3.38-.1.17-.2.34-.31.51-.73,1.18-1.45,2.38-2.17,3.6l-.09.15c-2.83,4.76-5.54,9.7-8,14.68-.51,1-1,2-1.52,3l-.47,1c-.34.7-.68,1.4-1,2.1l-.57,1.23c-.3.63-.59,1.27-.88,1.91-.21.45-.41.91-.62,1.37l-.33.75c-3.06-2.92-6.19-5.75-9.34-8.45-4.17-3.6-8.56-7.13-13-10.5-2.65-2-5.16-3.79-7.64-5.51.67-4,1.45-8.06,2.31-12m3.54,19.93c4.42,3.32,8.76,6.8,12.89,10.37,3.38,2.9,6.74,6,10,9.1-1.2,2.76-2.35,5.6-3.52,8.64-.87,2.24-1.73,4.56-2.55,6.91s-1.62,4.71-2.33,6.95l-18.64-45c1.35,1,2.72,2,4.14,3m-56.38-25.1c-.11-2.74-.18-5.43-.2-8.05,2.51,1.06,5,2.16,7.37,3.28a250.46,250.46,0,0,1,30,16.44c3.25,2.08,6.57,4.33,10.14,6.87,0,.08,0,.18,0,.26-.25,1.37-.49,2.75-.72,4.16,0,.17-.05.35-.08.52-.23,1.44-.46,2.9-.66,4.37-.8,5.47-1.41,11.07-1.82,16.63-.14,1.85-.26,3.74-.36,5.63,0,.32,0,.64,0,1-.09,1.83-.15,3.67-.2,5.52,0,.16,0,.31,0,.47-3.93-1.52-7.91-2.94-11.85-4.23-5.24-1.73-10.65-3.31-16.08-4.7-3.16-.8-6.24-1.53-9.17-2.17-.92-4-1.75-8-2.46-12a252.45,252.45,0,0,1-3.74-34m14.63,51c5.36,1.37,10.7,2.93,15.88,4.64,4.24,1.39,8.52,2.93,12.73,4.58,0,3,0,6.07.06,9.34,0,2.39.15,4.87.29,7.35s.31,5,.5,7.31l-34.43-34.43c1.63.38,3.28.78,5,1.21m-61.68-1.61c-1.16-2.5-2.26-5-3.28-7.36,2.72,0,5.42.09,8.07.2a250.52,250.52,0,0,1,34,3.74c3.79.67,7.73,1.47,12,2.46.18.88.4,1.79.6,2.68.12.54.23,1.07.36,1.61q.57,2.41,1.2,4.88c1.36,5.35,2.94,10.76,4.69,16.07.58,1.77,1.2,3.56,1.83,5.36.11.29.21.58.31.88.62,1.71,1.25,3.42,1.91,5.14.07.16.12.32.18.49-4.21.1-8.43.31-12.57.62-5.5.41-11.1,1-16.65,1.81-3.22.47-6.35,1-9.3,1.51-2.37-3.33-4.68-6.73-6.86-10.13a251.1,251.1,0,0,1-16.45-30m33,41.55c5.48-.78,11-1.38,16.45-1.78,4.44-.35,9-.55,13.52-.64,1.11,2.81,2.3,5.63,3.62,8.6,1,2.18,2,4.43,3.08,6.68s2.19,4.48,3.27,6.56l-45-18.64c1.66-.27,3.34-.53,5.06-.78M44.3,186.72c-2-1.86-4-3.72-5.85-5.55,2.53-1,5-2,7.54-2.9a249.3,249.3,0,0,1,32.8-9.54c3.76-.84,7.7-1.6,12-2.32l.19.28c.78,1.12,1.57,2.25,2.39,3.39l.29.4q1.29,1.78,2.64,3.58c2.69,3.6,5.52,7.16,8.44,10.64.68.8,1.35,1.61,2,2.41s1.5,1.73,2.26,2.59l.59.66,1.71,1.91.79.86,1.59,1.71c.28.31.57.61.85.91l.66.7c-3.86,1.71-7.68,3.52-11.37,5.39-4.93,2.48-9.87,5.18-14.7,8-2.79,1.66-5.48,3.32-8,5-3.46-2.16-6.89-4.42-10.21-6.73A250.33,250.33,0,0,1,44.3,186.72m46.42,25.74c4.77-2.82,9.65-5.49,14.52-7.94,4-2,8.08-4,12.24-5.77,2.09,2.16,4.27,4.31,6.64,6.56,1.72,1.65,3.54,3.33,5.41,5s3.73,3.3,5.52,4.81H86.35c1.43-.88,2.88-1.77,4.37-2.66M46,254.94c-2.57-.94-5.09-1.91-7.52-2.89,1.95-1.92,3.91-3.78,5.85-5.56A249.8,249.8,0,0,1,71,225.11c3.16-2.21,6.51-4.42,10.22-6.74l.27.18c1.16.75,2.34,1.49,3.54,2.24l.38.23c1.26.78,2.53,1.55,3.83,2.31,4.75,2.83,9.69,5.54,14.67,8l3,1.5,1,.49,2.11,1,1.13.53,2.07,1,1.18.53.85.38c-2.91,3-5.75,6.19-8.45,9.34-3.6,4.17-7.13,8.56-10.5,13.05-1.94,2.6-3.8,5.17-5.51,7.64-4-.67-8-1.45-12-2.31A251.08,251.08,0,0,1,46,254.94m52.75,6c3.32-4.44,6.81-8.78,10.36-12.9,2.91-3.38,6-6.74,9.11-10,2.76,1.2,5.6,2.35,8.64,3.52,2.21.86,4.54,1.72,6.91,2.55s4.72,1.62,6.95,2.33l-45,18.64c1-1.37,2-2.74,3-4.13m8.88,52.63a250.84,250.84,0,0,1-34,3.74c-2.74.11-5.43.18-8.05.2,1.06-2.51,2.16-5,3.28-7.37a249.69,249.69,0,0,1,16.44-30c2.07-3.23,4.32-6.56,6.87-10.14l.44.08c1.3.24,2.62.47,4,.69l.53.08c1.44.23,2.9.46,4.36.66,5.47.79,11.07,1.4,16.64,1.82q2.81.21,5.66.36l.93.05c1.83.09,3.68.15,5.54.2l.45,0c-1.52,3.94-2.94,7.92-4.23,11.85-1.72,5.22-3.31,10.63-4.7,16.08-.8,3.14-1.53,6.22-2.17,9.17-4,.92-8,1.75-12,2.46m17.06-10.89c1.37-5.38,2.94-10.72,4.64-15.88,1.39-4.23,2.93-8.51,4.59-12.74,1,0,2.09,0,3.16,0,2,0,4,0,6.17-.09,2.39,0,4.87-.15,7.35-.29s5-.31,7.31-.5l-34.43,34.43q.57-2.44,1.21-5M153,347.93a251,251,0,0,1-30,16.45q-3.72,1.72-7.36,3.28c0-2.72.09-5.42.2-8.07a248.94,248.94,0,0,1,3.74-34c.66-3.78,1.47-7.71,2.46-12,.88-.18,1.79-.4,2.69-.6l1.6-.36c1.62-.38,3.24-.78,4.88-1.2,5.37-1.37,10.78-3,16.07-4.69,1.77-.58,3.57-1.2,5.36-1.84l.87-.3c1.73-.62,3.45-1.26,5.18-1.93l.45-.16c.11,4.22.32,8.44.63,12.57.41,5.49,1,11.09,1.81,16.65.47,3.28,1,6.33,1.51,9.3-3.33,2.37-6.73,4.68-10.13,6.86m11.59-16.59c-.79-5.48-1.39-11-1.79-16.45-.34-4.44-.54-9-.63-13.52,2.79-1.1,5.61-2.29,8.6-3.62,2.18-1,4.43-2,6.68-3.08s4.48-2.19,6.56-3.27l-18.64,45c-.27-1.64-.53-3.32-.78-5.07m43.5,30.93a249.44,249.44,0,0,1-21.38,26.67c-1.86,2-3.72,4-5.55,5.85-1-2.53-2-5.05-2.9-7.54a250.88,250.88,0,0,1-9.55-32.8c-.82-3.75-1.58-7.69-2.31-12l.33-.24c1.1-.76,2.22-1.54,3.34-2.35l.4-.3q1.78-1.28,3.58-2.63c4.42-3.31,8.81-6.83,13.05-10.48.85-.73,1.7-1.48,2.55-2.23l.81-.72,1.76-1.58,1-.87,1.63-1.51,1-.91.67-.63c1.71,3.86,3.52,7.68,5.39,11.37,2.47,4.92,5.18,9.87,8,14.7,1.66,2.8,3.33,5.49,5,8-2.16,3.46-4.42,6.89-6.73,10.2m4.36-19.75c-2.82-4.77-5.5-9.65-7.94-14.52-2-4-4-8.08-5.77-12.24,2.15-2.08,4.31-4.26,6.56-6.64,1.64-1.71,3.33-3.53,5-5.41s3.3-3.73,4.81-5.52v48.7c-.88-1.43-1.77-2.88-2.66-4.37m52,11.93a251.08,251.08,0,0,1-9.55,32.82q-1.42,3.86-2.89,7.52c-1.91-1.94-3.77-3.9-5.56-5.85a249.8,249.8,0,0,1-21.38-26.66c-2.2-3.15-4.41-6.5-6.74-10.22.08-.11.15-.24.23-.35.72-1.13,1.45-2.28,2.18-3.45l.24-.38c.77-1.26,1.55-2.54,2.31-3.84s1.43-2.42,2.13-3.65c2-3.61,4-7.3,5.91-11,.51-1,1-2,1.51-3l.5-1,1-2.07.56-1.19c.31-.67.62-1.34.92-2,.18-.39.36-.77.53-1.16l.39-.87c3.06,2.91,6.19,5.75,9.34,8.44,4.17,3.6,8.56,7.14,13.05,10.5,2.59,1.94,5.16,3.79,7.64,5.51-.67,4-1.45,8.07-2.31,12M261,334.52c-4.42-3.31-8.76-6.8-12.89-10.37-3.37-2.89-6.74-5.95-10-9.1,1.2-2.76,2.35-5.6,3.52-8.64.87-2.23,1.73-4.56,2.55-6.91s1.62-4.72,2.33-6.95l18.63,45c-1.36-1-2.74-2-4.13-3m56.38,25.1c.11,2.73.18,5.42.2,8.05-2.5-1.06-5-2.16-7.37-3.28a250.32,250.32,0,0,1-30-16.44c-3.24-2.07-6.56-4.32-10.14-6.87,0-.12.05-.26.07-.39.24-1.31.47-2.65.69-4l.09-.55c.23-1.44.46-2.89.66-4.36.79-5.47,1.4-11.07,1.82-16.64.14-1.85.25-3.74.35-5.64l.06-.95c.08-1.83.15-3.67.2-5.52,0-.16,0-.31,0-.47,3.92,1.51,7.9,2.93,11.85,4.23,5.24,1.73,10.65,3.31,16.08,4.7,3.21.82,6.23,1.53,9.17,2.17.92,4,1.74,8,2.46,12a251.2,251.2,0,0,1,3.74,34m-14.63-51c-5.37-1.37-10.71-2.93-15.88-4.64-4.25-1.39-8.53-2.94-12.73-4.58,0-3,0-6.09-.06-9.34,0-2.36-.15-4.83-.29-7.35s-.31-5-.51-7.31l34.44,34.43c-1.61-.38-3.26-.77-5-1.21m61.68,1.61c1.16,2.5,2.26,5,3.28,7.36-2.72,0-5.42-.09-8.07-.2a250.35,250.35,0,0,1-34-3.74c-3.8-.67-7.74-1.48-12-2.46-.19-.88-.4-1.8-.61-2.71-.12-.53-.23-1-.35-1.58q-.57-2.42-1.2-4.88c-.51-2-1.06-4-1.62-6q-1.44-5.07-3.07-10.07c-.59-1.78-1.2-3.58-1.84-5.38-.1-.28-.2-.57-.31-.86q-.92-2.57-1.91-5.15c-.06-.16-.11-.32-.17-.47,4.21-.11,8.43-.32,12.57-.63,5.49-.41,11.09-1,16.65-1.81,3.21-.46,6.33-1,9.3-1.51,2.38,3.33,4.68,6.74,6.86,10.13a249.56,249.56,0,0,1,16.45,30m-33-41.55c-5.48.79-11,1.39-16.45,1.79-4.45.34-9,.54-13.52.63-1.11-2.79-2.29-5.62-3.62-8.59-.95-2.17-2-4.42-3.08-6.69s-2.19-4.47-3.27-6.56l45,18.64c-1.66.27-3.34.53-5.06.78m57.6-22.12c2,1.86,4,3.71,5.84,5.55-2.52,1-5,2-7.53,2.9a250.88,250.88,0,0,1-32.8,9.55c-3.77.83-7.71,1.59-12,2.31l-.22-.31c-.76-1.11-1.55-2.23-2.36-3.35l-.3-.42c-.86-1.19-1.73-2.38-2.63-3.57-3.31-4.43-6.84-8.82-10.48-13.05q-1.11-1.29-2.25-2.58l-.63-.7c-.55-.63-1.11-1.25-1.68-1.88l-.79-.86-1.57-1.7-.9-.95-.63-.67c3.85-1.7,7.67-3.51,11.37-5.39,4.92-2.47,9.86-5.18,14.7-8,2.84-1.69,5.48-3.32,8-5,3.48,2.17,6.91,4.43,10.21,6.73a250.44,250.44,0,0,1,26.67,21.38m-46.43-25.74c-4.77,2.83-9.65,5.5-14.5,7.94h0c-4,2-8.1,3.95-12.25,5.76-2.09-2.16-4.27-4.31-6.63-6.55-1.73-1.66-3.55-3.34-5.41-5s-3.73-3.3-5.52-4.81H346.9c-1.42.88-2.87,1.76-4.39,2.66"/><path class="cls-3" d="M340.3,280.07l-1,.22c-6.64,1.45-13.46,2.6-20.26,3.41l-1.74.21.48,1.69c1.84,6.54,3.39,13.28,4.59,20l.19,1,1,.19c2,.36,3.94.71,5.92,1l4.25.65c2.38.34,4.8.66,7.43,1l2.22.24,2.84.28c1.68.17,3.46.32,5.41.45l3.35.23,2.58.16L356.19,308l-.53-1.06-.69-1.4-.91-1.79-.47-.93c-2.79-5.39-5.8-10.73-8.94-15.87-.56-.93-1.13-1.86-1.72-2.78l-.29-.46c-.59-.92-1.18-1.86-1.78-2.78Zm10.62,24.12.47.93.9,1.77.3.59-.73-.05c-1.93-.13-3.68-.28-5.34-.45l-2.81-.28-2.21-.23c-2.58-.3-5-.61-7.33-1l-4.2-.64c-1.62-.27-3.23-.55-4.84-.84-1.08-5.9-2.43-11.8-4-17.58,6-.75,11.95-1.77,17.79-3l1.2,1.88.29.46c.57.9,1.13,1.81,1.69,2.73,3.11,5.09,6.08,10.36,8.83,15.68"/><path class="cls-3" d="M281.81,254.58l-.38-.62-.73-.08c-2.2-.25-4.61-.56-7.37-1l-3.16-.46,1.66,2.73c1.24,2,2.48,4.17,3.71,6.4l.36.64.72.12c2.62.42,5.19.79,7.62,1.09l2.95.36-1.47-2.59c-1.32-2.35-2.6-4.51-3.91-6.62m-4,4.91c-.6-1.08-1.2-2.14-1.81-3.17l3.64.46c.66,1.07,1.31,2.15,2,3.27-1.25-.17-2.51-.36-3.8-.56"/><path class="cls-3" d="M336.81,290.94c-.18-.31-.37-.61-.56-.91L335,288.11l-1,.23c-2.09.45-4.24.82-6.38,1.07l-1.75.21.48,1.69c.58,2.06,1.07,4.18,1.45,6.3l.18,1,1,.18,1.91.34,1.38.21c.8.11,1.6.22,2.42.31l.7.07.92.1,1.76.14,3.66.24-2.06-4.16c-.91-1.75-1.88-3.48-2.89-5.13m-.18,5.92-.89-.09-.7-.07q-1.16-.13-2.31-.3l-1.33-.21-.84-.14c-.25-1.3-.55-2.6-.87-3.88,1.32-.2,2.63-.42,3.93-.69l.09.15c.18.29.36.57.53.87.87,1.41,1.71,2.88,2.49,4.37h-.1"/><path class="cls-3" d="M310.52,353.35c0-.55-.07-1.09-.11-1.64s-.1-1.34-.16-2l-.08-1c-.51-6.05-1.24-12.13-2.18-18.08-.16-1.08-.34-2.15-.52-3.22l-.11-.62c-.18-1.05-.37-2.11-.57-3.16l-.19-1-1-.19c-6.68-1.19-13.42-2.74-20-4.6l-1.7-.47-.2,1.74c-.8,6.76-1.94,13.57-3.4,20.24l-.23,1,.88.56c1.68,1.09,3.37,2.17,5.07,3.22,1.22.75,2.45,1.49,3.68,2.22,2.06,1.23,4.18,2.45,6.5,3.74l2,1.07,2.51,1.34c1.47.79,3.05,1.61,4.83,2.5l3,1.48,2.33,1.14-.21-3.17c0-.36,0-.72-.07-1.06m-3.71-1.08c-1.75-.87-3.3-1.67-4.76-2.46l-2.49-1.33-1.95-1.06c-2.28-1.27-4.37-2.47-6.41-3.69-1.22-.72-2.43-1.46-3.63-2.2q-2.1-1.29-4.15-2.61c1.25-5.88,2.27-11.84,3-17.78,5.81,1.58,11.71,2.93,17.59,4,.13.71.25,1.42.38,2.12l.1.61c.19,1.06.35,2.11.52,3.17.92,5.88,1.65,11.9,2.15,17.87l.08,1c.06.67.11,1.33.16,2,0,.22,0,.44,0,.66l-.65-.33"/><path class="cls-3" d="M262.32,276.64l-.12-.72-.63-.35c-1.95-1.08-4.06-2.29-6.44-3.72l-2.74-1.64.49,3.16c.36,2.36.69,4.83,1,7.34l.08.73.62.38c2.27,1.39,4.5,2.71,6.63,3.92l2.59,1.46-.37-2.95c-.33-2.69-.68-5.17-1.08-7.61m-5.57,3c-.14-1.23-.3-2.44-.46-3.63,1.12.65,2.17,1.25,3.19,1.82.19,1.23.38,2.49.56,3.78l-3.29-2"/><path class="cls-3" d="M299.22,331.28c-.05-.36-.11-.71-.17-1.06l0-.18c-.06-.35-.12-.7-.19-1l-.19-1-1-.18c-2.1-.38-4.23-.87-6.31-1.45l-1.69-.48-.2,1.74a63.41,63.41,0,0,1-1.08,6.38l-.22,1,.87.56,1.65,1.05,1.19.71c.69.42,1.39.82,2.11,1.22l1.44.77c.51.28,1,.55,1.57.82l1,.48,2.33,1.13-.32-4.62c-.17-2-.41-3.94-.71-5.85m-2.43,5.4-1.4-.76c-.68-.38-1.36-.76-2-1.16l-1.15-.7-.72-.45c.26-1.3.49-2.62.68-3.93,1.29.33,2.59.62,3.89.88l0,.17c.06.33.11.66.17,1,.25,1.64.46,3.32.62,5l-.09-.05"/><path class="cls-3" d="M241.6,336.47l-1.38-1.09-.85,1.53c-3.33,5.94-7,11.8-10.89,17.4l-.6.86.59.85q1.71,2.48,3.46,4.91c.84,1.16,1.69,2.32,2.55,3.46,1.42,1.92,2.92,3.86,4.57,5.94l1.4,1.74c.6.74,1.2,1.47,1.81,2.2,1.05,1.29,2.2,2.65,3.51,4.16L248,381l1.71,1.93,1-2.92c.13-.36.25-.73.36-1.07.18-.52.36-1.05.53-1.57s.41-1.24.61-1.86l.34-1c1.84-5.8,3.49-11.7,4.9-17.54.26-1.06.51-2.11.75-3.17l.12-.52c.24-1.08.48-2.16.71-3.24l.21-1-.87-.56c-5.73-3.67-11.36-7.68-16.74-11.91m13.76,16.07-.12.51c-.23,1-.48,2.07-.74,3.12-1.39,5.78-3,11.61-4.84,17.33l-.33,1c-.2.62-.4,1.23-.61,1.85l-.21.63-.48-.55c-1.29-1.49-2.42-2.82-3.46-4.09l-1.78-2.19-1.4-1.72c-1.62-2-3.1-4-4.51-5.86-.85-1.14-1.69-2.29-2.52-3.42-1-1.33-1.9-2.67-2.83-4,3.41-4.94,6.63-10.07,9.6-15.27,4.75,3.69,9.7,7.19,14.71,10.44l-.48,2.2"/><path class="cls-3" d="M231.06,282.38l-1.91-2.56-.75,3.1c-.56,2.32-1.21,4.73-1.91,7.16l-.2.7.43.59c1.55,2.15,3.1,4.22,4.62,6.16l1.83,2.35L234,297c.72-2.6,1.35-5,1.92-7.44l.16-.71-.45-.57c-1.4-1.76-2.89-3.69-4.53-5.9m.8,10.9c-.76-1-1.52-2-2.28-3.07.33-1.19.65-2.36,1-3.53.78,1,1.52,2,2.25,2.9-.29,1.22-.6,2.44-.93,3.7"/><path class="cls-3" d="M237.37,353.36l.59.86,1.12,1.59.83,1.12c.48.65,1,1.28,1.48,1.92l1,1.27c.38.46.76.91,1.15,1.35l2.41,2.75.89-2.57c0-.14.09-.27.12-.36l.48-1.46c.6-1.88,1.13-3.79,1.58-5.67.09-.35.17-.69.25-1l.27-1.22.21-1-.87-.56c-1.8-1.15-3.58-2.42-5.28-3.75l-1.37-1.09L241.4,347A64.47,64.47,0,0,1,238,352.5Zm5.78-3.37c1.07.8,2.16,1.56,3.26,2.3a1.36,1.36,0,0,1,0,.17c-.07.33-.15.65-.23,1-.39,1.62-.84,3.25-1.33,4.86l-.07-.08-1-1.24c-.49-.61-1-1.22-1.43-1.85l-.8-1.08-.49-.69c.74-1.1,1.45-2.23,2.13-3.37"/><path class="cls-3" d="M193.84,336.91l-.86-1.54-1.38,1.09c-5.34,4.22-11,8.22-16.72,11.91l-.88.56.22,1c.43,2,.86,3.91,1.32,5.86.33,1.39.67,2.78,1,4.17.59,2.33,1.23,4.7,2,7.24l.63,2.14c.27.91.54,1.82.82,2.72.49,1.61,1,3.31,1.66,5.18.35,1.06.71,2.12,1.07,3.18l.84,2.45,2.09-2.38c.24-.27.48-.54.71-.82l1.07-1.23c.44-.5.87-1,1.31-1.52l.68-.79c3.92-4.65,7.7-9.47,11.24-14.33.64-.88,1.28-1.76,1.91-2.65l.22-.31c.66-.94,1.33-1.89,2-2.84l.58-.86-.59-.85c-3.89-5.58-7.55-11.43-10.9-17.4m6.47,20.22-.22.32c-.61.87-1.24,1.73-1.87,2.6-3.5,4.8-7.24,9.57-11.11,14.15l-.67.79c-.43.51-.86,1-1.3,1.51l-.43.51-.24-.69c-.61-1.85-1.15-3.52-1.63-5.11L182,368.5l-.63-2.12c-.71-2.5-1.34-4.83-1.93-7.14-.34-1.37-.68-2.76-1-4.13-.38-1.59-.74-3.18-1.08-4.78,5-3.26,10-6.77,14.7-10.44,3,5.23,6.21,10.36,9.61,15.28l-1.38,2"/><path class="cls-3" d="M200.05,299.87l1.83-2.35c1.68-2.14,3.19-4.16,4.62-6.14l.42-.6-.2-.7c-.62-2.13-1.25-4.48-1.93-7.18l-.78-3.09-1.88,2.57c-1.4,1.92-2.91,3.9-4.5,5.88l-.46.58.17.71c.62,2.6,1.26,5.11,1.91,7.45Zm2.62-13.19c.33,1.24.65,2.42,1,3.53-.74,1-1.49,2-2.28,3.07-.31-1.21-.63-2.45-.93-3.72.76-1,1.51-1.93,2.24-2.88"/><path class="cls-3" d="M191,345.49l-1.38,1.09c-1.69,1.33-3.46,2.59-5.27,3.75l-.88.56.22,1c.14.63.28,1.26.43,1.9l.33,1.34c.2.79.41,1.57.64,2.36l.46,1.57q.26.84.54,1.68l1.18,3.47,3.05-3.49c1.28-1.52,2.51-3.08,3.64-4.64l.63-.87.09-.13.62-.88.58-.86-.59-.85c-1.22-1.75-2.38-3.6-3.44-5.49Zm1.22,7.89-.08.12c-.2.28-.39.55-.6.83-1,1.34-2,2.67-3.09,4l0-.1-.45-1.53c-.22-.74-.42-1.49-.61-2.25-.11-.44-.22-.88-.32-1.31-.07-.27-.13-.55-.19-.83,1.1-.73,2.19-1.49,3.25-2.29.69,1.15,1.4,2.27,2.14,3.37l0,0"/><path class="cls-3" d="M149.54,319l-.21-1.74-1.69.48c-6.55,1.85-13.28,3.39-20,4.59l-1,.19-.18,1c-.36,2-.71,3.94-1,5.92-.22,1.41-.44,2.83-.65,4.25-.34,2.37-.66,4.8-1,7.43l-.24,2.22c-.1.95-.19,1.89-.28,2.84-.17,1.67-.32,3.44-.46,5.42-.07,1.1-.15,2.22-.22,3.34l-.16,2.58,2.84-1.4c.32-.15.65-.31,1-.47l1.48-.73,1.73-.88,1-.5c5.4-2.79,10.74-5.8,15.87-8.94.93-.56,1.86-1.13,2.78-1.71l.42-.27,2.82-1.81.86-.56-.22-1c-1.45-6.64-2.6-13.45-3.41-20.25m-1.66,21.1-.42.27c-.9.57-1.81,1.13-2.73,1.69-5.08,3.1-10.35,6.07-15.68,8.83l-1,.5-1.71.87-.59.3c0-.25,0-.49,0-.73.13-1.95.28-3.69.45-5.34.09-.95.18-1.88.28-2.81l.23-2.21c.3-2.59.61-5,1-7.33.21-1.4.42-2.81.64-4.2.26-1.62.54-3.23.83-4.84,5.91-1.08,11.81-2.43,17.58-4,.76,6,1.78,11.94,3,17.79l-1.92,1.22"/><path class="cls-3" d="M178.66,281.81l.62-.38.08-.73c.25-2.21.57-4.62,1-7.37l.46-3.16-2.73,1.66c-2,1.24-4.18,2.49-6.4,3.71l-.64.36-.12.72c-.43,2.68-.78,5.17-1.09,7.62l-.36,2.95,2.59-1.47c2.35-1.33,4.52-2.61,6.62-3.91m-4.91-4c1.07-.6,2.14-1.2,3.17-1.81-.17,1.28-.32,2.49-.46,3.64-1.07.66-2.15,1.31-3.27,2,.17-1.24.35-2.5.56-3.8"/><path class="cls-3" d="M143.83,327.62l-.21-1.75-1.69.48c-2.07.58-4.19,1.07-6.3,1.45l-1,.18-.18,1c-.12.63-.23,1.27-.34,1.91l-.21,1.38c-.11.8-.22,1.6-.31,2.41l-.17,1.63c-.06.59-.1,1.17-.15,1.76l-.23,3.66,4.16-2.06c1.75-.91,3.48-1.88,5.13-2.89l.91-.56.15-.1.9-.57.87-.57-.23-1c-.46-2.1-.82-4.24-1.07-6.38m-2.08,6-.15.09c-.28.18-.56.36-.86.53-1.41.87-2.89,1.71-4.37,2.49a.34.34,0,0,1,0-.1l.16-1.59q.14-1.16.3-2.31l.21-1.33c0-.28.09-.56.14-.84,1.3-.25,2.6-.55,3.88-.87.19,1.31.42,2.63.69,3.93h0"/><path class="cls-3" d="M216.34,219.8a3.3,3.3,0,1,0-3.3-3.3,3.3,3.3,0,0,0,3.3,3.3"/><path class="cls-3" d="M94,280.26l-1-.22-.56.88c-1.09,1.68-2.17,3.37-3.22,5.07-.75,1.22-1.49,2.45-2.22,3.68-1.23,2.05-2.45,4.18-3.74,6.5l-1.07,2c-.45.84-.9,1.67-1.34,2.51-.8,1.49-1.62,3.07-2.5,4.83l-1.48,3-1.14,2.32,3.1-.2,1.12-.07,1.65-.11,1.87-.15,1.17-.09c6.06-.51,12.15-1.25,18.08-2.18,1.08-.16,2.15-.34,3.22-.52l.34-.06c1.14-.2,2.3-.4,3.44-.62l1-.19.19-1c1.19-6.68,2.74-13.42,4.6-20l.47-1.69-1.74-.21c-6.76-.8-13.57-1.94-20.24-3.41M108.09,304l-2.4.43-.33.05-3.17.52c-5.87.92-11.88,1.65-17.86,2.15l-1.16.09-1.86.15-.67,0,.33-.65c.86-1.74,1.67-3.29,2.46-4.76.44-.84.88-1.66,1.33-2.49l1.06-1.95c1.27-2.28,2.47-4.37,3.68-6.41.73-1.21,1.47-2.43,2.21-3.63q1.29-2.1,2.61-4.15c5.87,1.25,11.84,2.27,17.78,3-1.58,5.81-2.93,11.71-4,17.59"/><path class="cls-3" d="M156.6,262.32l.72-.11.35-.64c1.08-1.95,2.29-4.06,3.72-6.44l1.63-2.74-3.15.49c-2.36.36-4.83.69-7.34,1l-.73.08-.38.62c-1.43,2.32-2.71,4.49-3.92,6.63L146,263.77l3-.37c2.68-.33,5.17-.68,7.61-1.08m-3-5.57c1.23-.14,2.44-.3,3.63-.46-.65,1.12-1.25,2.17-1.82,3.19-1.24.19-2.49.38-3.78.56.63-1.08,1.29-2.17,2-3.29"/><path class="cls-3" d="M93.1,297l-1.62,3.3,4.63-.32c2-.17,3.93-.41,5.86-.71l1-.17,2.24-.41.18-1c.38-2.11.87-4.23,1.45-6.31l.48-1.69-1.75-.2c-2.13-.26-4.28-.62-6.37-1.08l-1-.22-.57.87-1,1.65-.71,1.18c-.42.7-.82,1.4-1.22,2.12l-.34.62-.44.82c-.27.51-.54,1-.81,1.57m3.46-.16L97,296l.33-.6c.38-.68.76-1.36,1.16-2,.23-.39.47-.77.7-1.15l.45-.72c1.3.26,2.61.49,3.93.68-.33,1.29-.62,2.59-.88,3.89l-.17,0-1,.16c-1.65.26-3.33.47-5,.63a.41.41,0,0,0,0-.09"/><path class="cls-3" d="M97.86,240.22l-1.53-.85c-5.94-3.32-11.79-7-17.4-10.89l-.86-.6-.85.59q-2.48,1.71-4.91,3.46c-1.16.84-2.32,1.69-3.46,2.55-1.91,1.42-3.85,2.91-5.94,4.57l-1.74,1.4L59,242.26c-1.29,1.06-2.65,2.21-4.15,3.51-.84.72-1.68,1.47-2.52,2.2l-1.94,1.71,3,1c.36.13.71.25,1,.35l1.57.53,1.81.59,1.09.36c5.78,1.84,11.69,3.49,17.54,4.9,1.06.26,2.11.51,3.17.75l.57.13,3.19.7,1,.21.56-.87c3.67-5.72,7.67-11.35,11.91-16.74Zm-15,15.62-2.15-.47-.56-.13c-1-.23-2.08-.48-3.12-.73-5.79-1.4-11.62-3-17.33-4.85l-1.08-.35-1.8-.59-.63-.21.55-.48c1.48-1.28,2.81-2.41,4.09-3.46l2.19-1.79,1.72-1.39c2.06-1.63,4-3.1,5.86-4.51q1.71-1.27,3.42-2.52c1.33-1,2.67-1.9,4-2.83,5,3.41,10.07,6.63,15.27,9.59-3.69,4.77-7.19,9.71-10.44,14.72"/><path class="cls-3" d="M143.68,235.88l.71.16.57-.45c1.74-1.39,3.67-2.87,5.9-4.53l2.56-1.91-3.1-.75c-2.32-.56-4.73-1.21-7.16-1.91l-.7-.2-.59.43c-2.16,1.56-4.23,3.11-6.16,4.62l-2.34,1.83,2.87.79c2.62.73,5,1.35,7.44,1.92m-.65-6.31c1.19.34,2.36.66,3.53,1-1,.78-2,1.53-2.9,2.25-1.21-.29-2.44-.6-3.7-.93,1-.76,2-1.52,3.07-2.29"/><path class="cls-3" d="M76.32,239.91c-.65.48-1.29,1-1.94,1.48l-1.26,1-1.35,1.14-.82.72L69,246l4.41,1.47c1.87.59,3.78,1.13,5.68,1.59l1.11.26,1.13.25,1,.21.56-.87c1.15-1.81,2.42-3.58,3.75-5.28l1.09-1.38-1.53-.85c-1.87-1.05-3.72-2.2-5.49-3.43l-.85-.6L79,238l-1.59,1.12c-.37.27-.75.55-1.11.83m2.87,1.6.69-.49c1.11.74,2.23,1.46,3.37,2.13-.8,1.07-1.56,2.16-2.3,3.26l-.17,0-1-.23c-1.62-.39-3.25-.84-4.85-1.33l.08-.07,1.24-1c.61-.49,1.22-1,1.85-1.43l1.08-.8"/><path class="cls-3" d="M97.87,193l-1.09-1.38c-4.22-5.34-8.22-11-11.91-16.72l-.56-.88-1,.22c-2,.43-3.91.86-5.86,1.32-1.39.33-2.78.67-4.17,1-2.3.58-4.66,1.22-7.23,2l-2.15.63-2.72.82c-1.62.49-3.31,1-5.18,1.66L52.8,182.7l-2.44.84,2.36,2.08.81.71,1.25,1.08,1.49,1.28.82.71c4.65,3.91,9.47,7.7,14.33,11.24.88.64,1.76,1.28,2.65,1.91l.4.28c.91.64,1.83,1.29,2.75,1.92l.86.58.85-.59c5.57-3.88,11.43-7.55,17.4-10.9Zm-19.8,8.71-1.87-1.31-.41-.29c-.87-.61-1.73-1.23-2.6-1.87-4.81-3.5-9.57-7.24-14.15-11.11l-.83-.7-1.47-1.27-.51-.43.69-.24c1.85-.61,3.52-1.14,5.11-1.63l2.71-.81,2.12-.63c2.53-.72,4.87-1.35,7.14-1.93l4.13-1c1.59-.38,3.18-.74,4.78-1.08,3.26,5,6.77,10,10.43,14.7-5.22,3-10.35,6.21-15.27,9.61"/><path class="cls-3" d="M141.86,206.5l.59.42.71-.2c2.14-.62,4.49-1.25,7.18-1.93l3.09-.78-2.57-1.88c-1.94-1.41-3.91-2.93-5.88-4.5l-.57-.46-.72.17c-2.59.62-5.1,1.26-7.45,1.91l-2.87.8,2.35,1.83c2.09,1.63,4.16,3.19,6.14,4.62m1.82-6.07c1,.76,1.92,1.51,2.88,2.24-1.24.33-2.41.65-3.53,1-1-.74-2-1.5-3.07-2.28,1.21-.31,2.45-.63,3.72-.93"/><path class="cls-3" d="M82.35,183.46l-1,.22-1.9.43-1.35.33c-.78.2-1.56.41-2.35.64l-1.57.46q-.84.26-1.68.54L69,187.27l3.49,3c1.5,1.27,3.06,2.49,4.64,3.64l.87.63.09.06.92.65.86.58.85-.59a64,64,0,0,1,5.49-3.43l1.53-.86-1.09-1.38c-1.33-1.69-2.59-3.46-3.75-5.27Zm-2.47,8.77,0,0-.1-.07-.82-.59c-1.35-1-2.68-2-4-3.09l.1,0,1.53-.45c.74-.22,1.49-.42,2.25-.61l1.3-.32.83-.19c.74,1.1,1.5,2.19,2.3,3.25-1.15.68-2.27,1.4-3.37,2.14"/><path class="cls-3" d="M92.94,153.17l1-.22c6.64-1.45,13.45-2.6,20.26-3.41l1.74-.21-.48-1.69c-1.85-6.54-3.39-13.27-4.6-20l-.18-1-1-.19c-2-.36-3.94-.71-5.92-1l-4.25-.65c-2.37-.34-4.8-.66-7.43-1l-2.22-.24L87,123.27c-1.66-.17-3.43-.31-5.41-.46l-3.35-.22-2.57-.16L77,125.2c.17.35.34.7.51,1,.24.5.48,1,.73,1.48l.91,1.79.47.93c2.79,5.4,5.8,10.74,8.94,15.87.56.93,1.13,1.86,1.71,2.78l.33.51c.58.91,1.16,1.82,1.75,2.73ZM82.32,129.05l-.47-.93q-.45-.87-.9-1.77l-.3-.59.73,0c2,.14,3.71.28,5.34.45,1,.08,1.88.18,2.81.28l2.21.23c2.59.3,5,.61,7.33,1,1.4.21,2.81.42,4.2.65,1.62.26,3.23.54,4.84.83,1.08,5.9,2.43,11.8,4,17.58-6,.76-12,1.77-17.79,3-.39-.61-.78-1.22-1.16-1.83l-.33-.51c-.57-.9-1.13-1.81-1.69-2.73-3.1-5.08-6.07-10.35-8.83-15.68"/><path class="cls-3" d="M151.43,178.66l.38.62.73.08c2.23.25,4.64.57,7.37,1l3.16.46-1.66-2.72c-1.25-2-2.5-4.21-3.71-6.41l-.36-.64-.72-.12c-2.63-.42-5.19-.79-7.62-1.08l-2.95-.37,1.47,2.59c1.33,2.35,2.61,4.52,3.91,6.62m4-4.91c.59,1.07,1.2,2.13,1.8,3.17l-3.63-.46c-.66-1.07-1.31-2.15-2-3.27,1.24.17,2.51.36,3.8.56"/><path class="cls-3" d="M96.43,142.31l.61,1,.62,1,.57.87,1-.23c2.09-.46,4.24-.82,6.38-1.07l1.75-.21-.48-1.69c-.58-2.06-1.07-4.18-1.45-6.3l-.18-1-1-.18-1.92-.34-1.37-.21-2.41-.31-1.63-.17-1.76-.14L91.48,133l2.06,4.16c.91,1.75,1.88,3.48,2.89,5.14m.18-5.93,1.59.16q1.15.14,2.31.3l1.33.21.84.14c.25,1.3.54,2.6.87,3.89-1.32.19-2.63.41-3.93.68l-.09-.16-.54-.86c-.86-1.41-1.7-2.89-2.48-4.37h.1"/><path class="cls-3" d="M122.72,79.88c0,.55.07,1.1.11,1.65s.1,1.34.16,2l.08,1c.51,6.05,1.24,12.13,2.18,18.08.16,1.08.33,2.15.52,3.22l.11.64c.19,1,.37,2.1.57,3.14l.19,1,1,.19c6.69,1.19,13.42,2.74,20,4.6l1.69.47.21-1.74c.8-6.76,1.94-13.57,3.4-20.24l.23-1-.88-.56q-2.52-1.64-5.07-3.22c-1.22-.74-2.45-1.49-3.68-2.22-2-1.22-4.17-2.44-6.5-3.74l-2-1.07-2.51-1.34c-1.47-.79-3-1.61-4.83-2.5l-3-1.48-2.32-1.14.2,3.12c0,.38,0,.75.07,1.1M126.43,81c1.75.87,3.31,1.68,4.76,2.46l2.49,1.33,1.95,1.06c2.29,1.27,4.38,2.48,6.41,3.69,1.22.72,2.43,1.46,3.63,2.2q2.1,1.29,4.15,2.61c-1.25,5.87-2.27,11.84-3,17.78-5.81-1.58-11.71-2.93-17.59-4-.13-.7-.25-1.4-.37-2.1l-.11-.63c-.19-1.06-.35-2.11-.52-3.17-.92-5.88-1.65-11.9-2.15-17.87l-.08-1c-.06-.66-.11-1.32-.16-2,0-.23,0-.45,0-.67l.65.33"/><path class="cls-3" d="M170.92,156.6l.11.72.64.35c2,1.08,4.06,2.3,6.44,3.72l2.74,1.64-.49-3.16c-.36-2.35-.69-4.82-1-7.34l-.08-.73-.63-.38c-2.31-1.42-4.47-2.7-6.62-3.92L169.47,146l.36,3c.34,2.69.69,5.18,1.09,7.61m5.57-3c.14,1.23.3,2.44.46,3.63-1.12-.65-2.17-1.25-3.19-1.82-.19-1.23-.38-2.49-.56-3.78,1.08.63,2.17,1.29,3.29,2"/><path class="cls-3" d="M134,102c.06.35.11.7.17,1s.14.82.22,1.22l.19,1,1,.18c2.11.38,4.23.87,6.31,1.45l1.69.48.2-1.75c.26-2.13.62-4.27,1.08-6.37l.22-1-.87-.56-1.65-1-1.19-.71c-.69-.42-1.39-.82-2.11-1.22l-.63-.34-.81-.44-1.57-.81L133,91.49l.3,4.62c.17,2,.41,3.94.71,5.86m2.43-5.41.79.42.62.34c.67.38,1.35.76,2,1.16l1.15.7.72.45c-.26,1.3-.49,2.61-.68,3.93-1.29-.33-2.59-.62-3.89-.88l0-.18c-.06-.33-.11-.66-.17-1-.25-1.65-.46-3.33-.62-5l.09,0"/><path class="cls-3" d="M191.64,96.77,193,97.86l.85-1.53c3.32-5.94,7-11.8,10.89-17.4l.6-.85-.59-.86q-1.71-2.48-3.46-4.91c-.84-1.16-1.69-2.32-2.55-3.46-1.42-1.91-2.91-3.85-4.57-5.94l-1.4-1.74c-.6-.74-1.2-1.47-1.81-2.2-1.07-1.31-2.22-2.67-3.51-4.16-.72-.84-1.46-1.68-2.2-2.52l-1.71-1.94-1,3c-.12.36-.25.71-.37,1.08l-.51,1.53c-.22.64-.42,1.29-.63,1.94l-.32,1c-1.84,5.78-3.49,11.69-4.9,17.54-.26,1.06-.51,2.11-.75,3.17l-.09.41c-.25,1.11-.5,2.23-.74,3.35l-.21,1,.87.56c5.72,3.67,11.35,7.67,16.74,11.91M177.91,80.59l.09-.4c.23-1,.48-2.08.73-3.12,1.4-5.79,3-11.63,4.85-17.33l.31-1c.21-.64.41-1.28.63-1.92l.21-.63.48.55c1.27,1.46,2.4,2.8,3.46,4.09l1.78,2.19,1.4,1.72c1.63,2.06,3.11,4,4.51,5.86q1.27,1.71,2.52,3.42,1.44,2,2.83,4c-3.41,4.94-6.63,10.07-9.6,15.27-4.76-3.69-9.7-7.19-14.71-10.44q.24-1.16.51-2.31"/><path class="cls-3" d="M202.18,150.86l1.9,2.56.76-3.1c.57-2.33,1.21-4.74,1.91-7.16l.2-.7-.43-.59c-1.56-2.17-3.12-4.24-4.62-6.16l-1.83-2.34-.79,2.87c-.73,2.61-1.35,5-1.92,7.44l-.16.71.45.57c1.4,1.75,2.88,3.68,4.53,5.9m-.8-10.9c.75,1,1.52,2,2.28,3.07-.33,1.19-.66,2.36-1,3.53-.78-1-1.53-2-2.25-2.9.29-1.21.6-2.44.93-3.7"/><path class="cls-3" d="M195.87,79.88l-.59-.86-1.12-1.59-.83-1.12c-.48-.65-1-1.29-1.48-1.93l-1-1.26c-.38-.46-.76-.91-1.15-1.36L187.26,69l-1.49,4.4c-.6,1.88-1.13,3.79-1.59,5.67l-.24,1-.07.29c-.06.31-.13.62-.2.93l-.21,1,.87.56a63.84,63.84,0,0,1,5.27,3.75L191,87.75l.86-1.53c1-1.88,2.21-3.73,3.43-5.49Zm-5.78,3.37c-1.07-.8-2.16-1.57-3.26-2.3l0-.17c.08-.33.16-.65.24-1,.39-1.61.84-3.24,1.33-4.85l.07.08,1,1.24c.49.61,1,1.22,1.43,1.85l.8,1.08.49.69c-.74,1.1-1.45,2.23-2.13,3.37"/></g></g></svg>