<svg width="539" height="538" viewBox="0 0 539 538" fill="none" xmlns="http://www.w3.org/2000/svg">
<path d="M429.293 0H108.663C48.6258 0 0 48.6258 0 108.685V429.382C0 489.374 48.6258 538 108.663 538H429.36C489.352 538 538.022 489.374 538.022 429.337V108.685C537.978 48.6258 489.352 0 429.293 0Z" fill="url(#paint0_linear_2216_2)"/>
<path d="M90.4426 262.164C88.9534 258.165 88.9534 253.764 90.4426 249.765C121.146 166.233 191.147 112.4 268.775 112.4C346.402 112.4 416.403 166.233 447.106 249.765C448.596 253.758 448.596 258.154 447.106 262.146C441.937 276.267 435.448 289.869 427.726 302.773C426.544 304.85 424.958 306.669 423.062 308.125C421.166 309.581 418.999 310.643 416.687 311.25C414.375 311.856 411.965 311.995 409.599 311.657C407.233 311.32 404.958 310.513 402.907 309.284C400.857 308.055 399.073 306.429 397.66 304.501C396.247 302.573 395.234 300.383 394.679 298.058C394.124 295.733 394.039 293.321 394.43 290.962C394.82 288.604 395.677 286.348 396.952 284.326C402.38 275.251 407.09 265.765 411.038 255.956C384.534 190.333 329.301 148.289 268.775 148.289C208.248 148.289 153.015 190.333 126.511 255.956C135.456 280.768 150.145 303.112 169.379 321.16C188.612 339.209 211.844 352.449 237.174 359.8C241.77 360.961 245.719 363.894 248.16 367.957C250.601 372.02 251.335 376.884 250.203 381.487C249.07 386.089 246.162 390.057 242.114 392.523C238.066 394.989 233.206 395.753 228.597 394.648C196.506 385.515 167.139 368.667 143.057 345.574C118.975 322.48 100.912 293.844 90.4426 262.164ZM340.552 255.956C340.549 244.077 337.598 232.385 331.964 221.927C326.33 211.47 318.188 202.575 308.269 196.039C298.35 189.503 286.965 185.53 275.133 184.478C263.301 183.426 251.393 185.327 240.476 190.01C243.561 192.324 246.113 195.273 247.959 198.659C249.805 202.045 250.902 205.788 251.175 209.635C251.448 213.482 250.892 217.342 249.544 220.955C248.195 224.568 246.086 227.849 243.359 230.576C240.632 233.303 237.351 235.412 233.738 236.761C230.125 238.109 226.265 238.665 222.418 238.392C218.571 238.119 214.828 237.022 211.442 235.176C208.056 233.33 205.107 230.778 202.793 227.693C198.6 237.482 196.639 248.082 197.05 258.723C197.462 269.364 200.236 279.781 205.171 289.217C210.107 298.654 217.081 306.874 225.586 313.281C234.092 319.689 243.917 324.123 254.349 326.263C264.781 328.404 275.559 328.196 285.9 325.655C296.242 323.114 305.889 318.304 314.141 311.573C322.394 304.842 329.045 296.36 333.613 286.74C338.181 277.12 340.552 266.605 340.552 255.956ZM367.469 435.4C372.228 435.4 376.792 433.509 380.158 430.144C383.523 426.779 385.413 422.215 385.413 417.456V390.539H412.33C417.089 390.539 421.653 388.648 425.019 385.283C428.384 381.918 430.275 377.354 430.275 372.594C430.275 367.835 428.384 363.271 425.019 359.906C421.653 356.541 417.089 354.65 412.33 354.65H385.413V327.733C385.413 322.974 383.523 318.41 380.158 315.045C376.792 311.679 372.228 309.789 367.469 309.789C362.71 309.789 358.146 311.679 354.78 315.045C351.415 318.41 349.525 322.974 349.525 327.733V354.65H322.608C317.849 354.65 313.284 356.541 309.919 359.906C306.554 363.271 304.663 367.835 304.663 372.594C304.663 377.354 306.554 381.918 309.919 385.283C313.284 388.648 317.849 390.539 322.608 390.539H349.525V417.456C349.525 422.215 351.415 426.779 354.78 430.144C358.146 433.509 362.71 435.4 367.469 435.4Z" fill="white"/>
<defs>
<linearGradient id="paint0_linear_2216_2" x1="0" y1="0" x2="439.786" y2="412.463" gradientUnits="userSpaceOnUse">
<stop stop-color="#48D8D6"/>
<stop offset="1" stop-color="#1C6BFF"/>
</linearGradient>
</defs>
</svg>
