<svg width="180" height="180" viewBox="0 0 180 180" fill="none" xmlns="http://www.w3.org/2000/svg">
<rect width="180" height="180" fill="url(#paint0_linear_2219_8)"/>
<path d="M30.2594 87.713C29.7612 86.375 29.7612 84.9024 30.2594 83.5644C40.5318 55.6171 63.9523 37.606 89.9244 37.606C115.896 37.606 139.317 55.6171 149.589 83.5644C150.088 84.9003 150.088 86.3711 149.589 87.707C147.86 92.4314 145.689 96.9823 143.105 101.299C142.71 101.994 142.179 102.603 141.545 103.09C140.91 103.577 140.185 103.933 139.412 104.136C138.638 104.339 137.832 104.385 137.04 104.272C136.249 104.159 135.487 103.889 134.802 103.478C134.116 103.067 133.519 102.523 133.046 101.878C132.573 101.233 132.234 100.5 132.049 99.7219C131.863 98.9441 131.835 98.137 131.965 97.348C132.096 96.5591 132.383 95.8041 132.809 95.1276C134.625 92.0913 136.201 88.9177 137.522 85.6357C128.654 63.6801 110.175 49.6134 89.9244 49.6134C69.6738 49.6134 51.1944 63.6801 42.3269 85.6357C45.3195 93.9373 50.2342 101.413 56.6692 107.451C63.1042 113.49 70.8769 117.92 79.3518 120.379C80.8894 120.768 82.2108 121.749 83.0274 123.108C83.8441 124.468 84.0898 126.095 83.7107 127.635C83.3317 129.175 82.3588 130.502 81.0044 131.327C79.6501 132.152 78.0243 132.408 76.4821 132.038C65.7454 128.983 55.9198 123.346 47.8628 115.619C39.8057 107.893 33.7621 98.3122 30.2594 87.713ZM113.939 85.6357C113.938 81.6614 112.951 77.7496 111.066 74.2508C109.181 70.7521 106.457 67.7759 103.138 65.5891C99.8197 63.4023 96.0103 62.0734 92.0516 61.7213C88.093 61.3693 84.1089 62.0052 80.4565 63.572C81.4887 64.3462 82.3425 65.3331 82.9601 66.4659C83.5777 67.5988 83.9446 68.8511 84.0361 70.1381C84.1276 71.4251 83.9414 72.7167 83.4902 73.9255C83.0391 75.1343 82.3334 76.2321 81.4211 77.1444C80.5087 78.0567 79.411 78.7624 78.2022 79.2136C76.9934 79.6647 75.7018 79.8509 74.4148 79.7594C73.1278 79.6679 71.8755 79.301 70.7426 78.6834C69.6098 78.0658 68.6229 77.212 67.8487 76.1798C66.4461 79.4551 65.7898 83.0014 65.9274 86.5616C66.0651 90.1219 66.9932 93.607 68.6445 96.7641C70.2959 99.9213 72.629 102.671 75.4748 104.815C78.3206 106.959 81.6078 108.443 85.0981 109.159C88.5883 109.875 92.1941 109.805 95.6542 108.955C99.1142 108.105 102.342 106.496 105.103 104.244C107.864 101.992 110.089 99.1538 111.618 95.9353C113.146 92.7169 113.939 89.1986 113.939 85.6357ZM122.945 145.673C124.537 145.673 126.064 145.04 127.19 143.914C128.316 142.789 128.949 141.261 128.949 139.669V130.664H137.954C139.546 130.664 141.073 130.031 142.199 128.905C143.325 127.779 143.958 126.252 143.958 124.66C143.958 123.068 143.325 121.541 142.199 120.415C141.073 119.289 139.546 118.656 137.954 118.656H128.949V109.651C128.949 108.058 128.316 106.531 127.19 105.405C126.064 104.279 124.537 103.647 122.945 103.647C121.353 103.647 119.825 104.279 118.7 105.405C117.574 106.531 116.941 108.058 116.941 109.651V118.656H107.936C106.343 118.656 104.816 119.289 103.69 120.415C102.564 121.541 101.932 123.068 101.932 124.66C101.932 126.252 102.564 127.779 103.69 128.905C104.816 130.031 106.343 130.664 107.936 130.664H116.941V139.669C116.941 141.261 117.574 142.789 118.7 143.914C119.825 145.04 121.353 145.673 122.945 145.673Z" fill="white"/>
<defs>
<linearGradient id="paint0_linear_2219_8" x1="0" y1="0" x2="147.14" y2="137.993" gradientUnits="userSpaceOnUse">
<stop stop-color="#48D8D6"/>
<stop offset="1" stop-color="#1C6BFF"/>
</linearGradient>
</defs>
</svg>
